<svg id="Layer_1" data-name="Layer 1" xmlns="http://www.w3.org/2000/svg" viewBox="0 0 467.64 337.5"><defs><style>.cls-1{fill:#fff;}</style></defs><path class="cls-1" d="M57.48,122.53c6.78,2.76,8.7-1.31,10.2-5.84,7.88-23.75,19.91-45.39,33.25-66.43,4-6.38,6.6-13.75,13.25-18.12,2.53-1.65,5.27-3.63,8.11-4,10.47-1.46,21-2.88,31.54-3.32,64.2-2.67,128.42-2.74,192.61.18,8,.37,16.21,1.21,23.77,3.58,5,1.55,10.38,5.34,13.12,9.69,9.1,14.42,17.56,29.3,25.33,44.49,6.23,12.17,11.3,25,16.45,37.64,2.1,5.15,4.94,2.74,7.73,2.15.26-.52.43-.7.42-.87-.8-15.31-.8-15.31,14.64-15.31h17.15a27.81,27.81,0,0,1,3.54.08c5.2.67,11.18,11.1,11.17,19.4,0,5.93-2.1,7.41-10.21,8.56-10.62,1.51-21.17,3.44-31.83,5.2,3.28,5.3,5.62,11.31,9.9,15.14,2.46,2.2,5.85,3.39,7.75,6.77,2,3.54,3.29,6.38-.88,9.32a5.33,5.33,0,0,0-1.78,4.35c1,5.9,3.19,11.68,3.63,17.6a153.88,153.88,0,0,1-.42,22.3c-.44,6.22-2.28,12.39-2.31,18.59-.22,37.81-.1,75.63-.1,113.44,0,11-2.14,13.14-13.12,13.16-9.65,0-19.31.05-29,0-9-.06-12.14-3.13-12.22-12-.09-10.25.06-20.5,0-30.75,0-2.93-.29-5.86-.48-9.59-2.44,0-4.55.1-6.65,0-21.1-1.1-42.19-2.82-63.3-3.2-30.71-.56-61.43-.13-92.15-.15-30.15,0-60.43-1.73-90.42.47-17.91,1.31-35.85,2.35-54.84,3.4,0,8.68,0,17.45,0,26.21,0,5.13.34,10.26.07,15.37-.39,7.45-3.36,10.16-10.81,10.22q-15.66.13-31.34,0c-8.09,0-12.37-4.48-12.37-12.82,0-36.63.1-73.26-.08-109.89,0-9.64-.8-19.28-1.59-28.9a81.64,81.64,0,0,1,3.64-31.36c.71-2.27,2-5.36-2.27-6.71-1.14-.36-2.49-3.83-1.95-5.12,1.41-3.35,3.17-7.77,6-9a10.67,10.67,0,0,0,5.82-5.6c2-3.66,4.48-7,7.32-11.38C50,138.84,47,138.33,44,137.87c-8.71-1.36-17.45-2.51-26.09-4.17a7.68,7.68,0,0,1-5-3.88c-2.39-6,1.25-18.46,6.28-22a10.34,10.34,0,0,1,5.58-1.34c7.88-.15,15.77-.11,23.65-.07,9.07,0,10.8,2.08,9.59,11C57.74,119.12,57.63,120.86,57.48,122.53Zm191.3-18.64v-.6c15.76,0,31.54-.43,47.29.09,29.9,1,59.78,2.56,89.68,3.83,6.48.28,8.12-1.44,7.77-7.82a14,14,0,0,0-.67-3.45c-4.16-13.24-8.38-26.46-12.52-39.71-2.34-7.46-6.62-10.68-15.15-10.81C338.6,45,312,43.49,285.47,42.36c-10.8-.46-21.6-1.31-32.4-1.43-8-.08-16.1.91-24.16,1.13-22.84.61-45.68.85-68.5,1.68-14,.52-27.91,1.71-41.83,3a7.68,7.68,0,0,0-5.4,4c-2.45,6.36-4.09,13-6.17,19.54-2.63,8.17-5,16.43-8.19,24.4-3.66,9.24-1.43,13.17,8.24,12.71,23-1.11,46-2.77,69-3.33C200.31,103.44,224.55,103.89,248.78,103.89Zm-2.93,88.71c18.49,0,37-.1,55.48.07,4.81.05,7.37-1.12,7-6.54-.36-5.88-.19-11.8-.09-17.69.08-4.3-1.31-6.33-6.15-6.2-11.58.31-23.17,0-34.75,0-26,0-51.95.18-77.92,0-4.53,0-5.84,1.7-5.71,5.83.17,5.5,0,11,0,16.53.05,7.88.08,7.91,7.75,7.92Q218.69,192.62,245.85,192.6ZM442.23,306.47c-6.31-2.76-12.37-5.68-18.62-8.1-8.29-3.21-16.57-8-25.11-8.66-23.09-1.67-46.32-1.85-69.49-2-51-.24-102-.06-153.08-.07-2.17,0-4.44.22-6.46-.36-1.82-.53-4.17-1.62-4.9-3.13-3.09-6.38-7.66-10.36-14.92-10.2a143.13,143.13,0,0,0-19.87,1.46c-2.22.37-5.08,3.07-5.77,5.29-2,6.23-6.19,7.2-11.72,7a50.39,50.39,0,0,0-11.19.67c-7.8,1.51-15.7,2.9-23.2,5.42-7.08,2.39-13.69,6.19-20.54,9.29-2.5,1.14-5.1,2.05-7.65,3.07,5.56,2.58,10.49,3.61,15.62-.35,7.65-5.89,16.2-10,26.1-10.7,2.13-.15,4.21-.85,6.33-1.12,7.53-1,14-3.21,22.32,2,14.84,9.26,31.77,8.34,46.83-1a21.58,21.58,0,0,1,12.24-3.52c48.67,0,97.34-.44,146,.17,25.47.32,51.1-2.1,76.42,3.54,8.78,2,16.69,5,23.78,10.36C429.16,308.42,437.13,310.75,442.23,306.47ZM351.07,184.14c9.12-.86,16.43-1.52,23.73-2.24q21.13-2.1,42.25-4.27c5-.51,8-2.7,8.74-8.26.73-5.79,2.42-11.47,3.84-17.16.9-3.57.79-6.09-2.21-9.34-8.09-8.76-7.65-8.93-18.2-4.39-11.77,5.08-23.35,11.2-35.66,14.28-10.6,2.65-17.08,6.31-17.61,18C355.77,174.71,353.2,178.55,351.07,184.14ZM139.37,184c-3-9.91-5.26-17.95-7.88-25.88-.37-1.1-2.33-1.87-3.71-2.4-15.77-6-31.94-11.13-47.21-18.23-7-3.23-11.13-4.14-14.9,2.93C64.18,143.16,62,146.11,62,149c0,4.84,1.24,9.74,2.35,14.52,3.1,13.26,3.21,13.35,17.19,15,9.37,1.11,18.76,2.07,28.16,3S128.23,183,139.37,184Zm280.41,72.42c-3.95-6.32-8.93-8-14.33-8.06-13.18-.22-26.37-.06-39.55,0a11,11,0,0,0-2.58.62l-.57,1.77c3.75,1.89,7.44,5.25,11.26,5.41C388.68,256.76,403.4,256.37,419.78,256.37Zm-293-7.9c-14.87,0-28.6-.19-42.33.1-4.89.1-9.2,2.1-11.79,8,13.31,0,25.52-.25,37.71.1C116.8,256.85,122.12,255.49,126.75,248.47Z" transform="translate(-12.12 -22.79)"/><path class="cls-1" d="M142.11,286.87c-3.68,3.11-6.07,6.68-8.21,6.53-2.39-.17-6.56-3.95-6.34-5.71.33-2.67,3.4-6.16,6-7C135.26,280.2,138.23,283.92,142.11,286.87Z" transform="translate(-12.12 -22.79)"/><path class="cls-1" d="M143.88,287.43c3.38-3.17,5.24-6.34,7.69-6.89,3.94-.89,6.09,2.6,6.25,6.14.17,3.84-1.88,7.41-6.14,6.88C149.37,293.28,147.39,290.31,143.88,287.43Z" transform="translate(-12.12 -22.79)"/><path class="cls-1" d="M417.8,162c.87,5.36-1.12,8.19-6.23,8.72-9.94,1-19.9,2-29.83,3.11-5.18.58-10.33,1.4-16.88,2.31Z" transform="translate(-12.12 -22.79)"/><path class="cls-1" d="M74.22,162.17l50.84,13.48c-8.67-.83-18.53-1.7-28.37-2.74-5.26-.55-10.48-1.49-15.75-2C75.92,170.37,73.47,168,74.22,162.17Z" transform="translate(-12.12 -22.79)"/></svg>