<?xml version="1.0" encoding="utf-8"?>
<!-- Generator: Adobe Illustrator 25.3.1, SVG Export Plug-In . SVG Version: 6.00 Build 0)  -->
<svg version="1.1" id="Layer_1" xmlns="http://www.w3.org/2000/svg" xmlns:xlink="http://www.w3.org/1999/xlink" x="0px" y="0px"
	 viewBox="0 0 500 178.68" style="enable-background:new 0 0 500 178.68;" xml:space="preserve">
<style type="text/css">
	.st0{fill:#FFFFFF;}
</style>
<path class="st0" d="M317.4,41.5c3.25,1.45,6.6,2.71,9.72,4.41c4.4,2.4,8.55,5.26,12.95,7.66c2,1.09,4.3,1.8,6.55,2.23
	c2.67,0.5,4.33,2.23,6.25,3.84c1.24,1.04,3.23,2.29,4.53,1.97c4.05-0.98,7.82,0.26,11.69,0.62c3.41,0.32,6.79,0.91,10.19,1.29
	c9.15,1.03,18.31,1.94,27.45,3.04c5.81,0.7,11.63,1.49,17.38,2.54c7.31,1.33,14.61,2.78,21.84,4.52c5.75,1.38,11.53,2.88,17,5.06
	c5.36,2.14,11,4.13,15.01,8.71c1.02,1.17,1.92,2.45,2.4,3.07c-0.62,2.03-1.06,3.46-1.49,4.89c0.27,0.14,0.54,0.28,0.8,0.43
	c0.61-0.33,1.21-0.67,1.98-1.09c0.35,0.77,0.71,1.56,1.07,2.35c-0.13,0.18-0.26,0.37-0.39,0.55c-0.72-0.51-1.44-1.01-2.53-1.78
	c0.42,1.99,0.88,3.67,1.13,5.39c0.86,5.95,1.72,11.9,2.45,17.87c0.47,3.8,0.68,7.64,1.08,11.45c0.08,0.77,0.55,1.51,1.02,2.75
	c-2.22,1.21-4.5,2.64-6.93,3.71c-1.63,0.72-3.47,1.22-5.25,1.32c-9.62,0.52-19.26,0.89-28.88,1.31c-3.17,0.14-3.25,0.05-3.32-3.09
	c-0.16-8.03-1.74-15.82-4.86-23.17c-2.24-5.27-5.13-10.33-9.7-14.05c-2.17-1.77-4.53-3.39-7.03-4.63
	c-8.8-4.39-18.22-4.66-27.47-2.48c-8.48,2-15.14,7.18-19.94,14.66c-6.18,9.64-7.85,20.38-8.15,31.51c-0.1,3.89-0.13,3.88-3.92,3.86
	c-25.95-0.14-51.9-0.28-77.85-0.42c-34.75-0.2-69.49-0.4-104.24-0.62c-6.13-0.04-12.26-0.26-18.39-0.2c-2.37,0.02-3.1-0.89-2.97-3.1
	c0.13-2.09,0-4.2,0.03-6.3c0.15-9.14-2.12-17.62-7.72-24.86c-5.13-6.63-11.78-11.22-20.09-13.32c-4.45-1.12-8.86-1.79-13.4-1.13
	c-9.67,1.4-18.22,5.11-24.47,12.89c-5.05,6.28-7.97,13.56-9.14,21.54c-0.47,3.21-1,6.41-1.55,9.93c-1.4,0-2.96,0.15-4.49-0.02
	c-8.67-0.97-17.33-1.94-25.98-3.05c-7.87-1.01-15.71-2.19-23.56-3.3c-3.52-0.49-7.05-0.95-10.56-1.5c-0.68-0.11-1.78-0.5-1.85-0.91
	c-0.12-0.7,0.23-1.67,0.71-2.24c2.02-2.4,2.45-5.19,1.05-7.9c-0.38-0.73-0.64-1.51-1.02-2.23c-2.5-4.73-3.05-9.81-2.87-15.07
	c0.09-2.68,1.59-4.2,3.79-5.01c5-1.83,6.14-2.9,6.06-8.04c-0.14-8.63-0.54-17.25-0.98-25.87c-0.18-3.56,0.99-5.02,4.54-5.33
	c10.02-0.87,20.03-1.77,30.03-2.79c3.81-0.39,7.64-0.93,11.36-1.81c2.22-0.53,4.26-1.84,6.37-2.82c4.73-2.19,9.45-4.42,14.2-6.57
	c4.6-2.08,9.19-4.17,13.85-6.12c4.21-1.76,8.47-3.41,12.75-4.96c5.46-1.98,10.91-4.07,16.49-5.64c7.02-1.97,14.13-3.75,21.3-5.07
	c6.97-1.28,14.04-2.09,21.1-2.75c19.68-1.84,39.42-1.17,59.13-0.62c9.47,0.27,18.98,0.89,28.35,2.22
	c8.14,1.16,16.43,2.21,24.09,5.55c6.81,2.98,13.54,6.16,20.28,9.3c3.84,1.79,7.66,3.65,11.43,5.59c0.68,0.35,1.09,1.24,1.63,1.88
	c-1.09-0.34-2.28-0.51-3.27-1.04c-3.56-1.88-7.02-3.97-10.61-5.81c-3.76-1.93-7.83-3.33-11.36-5.59c-3.06-1.96-5.89-1.88-9.46-0.86
	c0.62,0.66,0.98,1.29,1.53,1.59c4.73,2.58,9.51,5.07,14.25,7.64c3.19,1.74,6.39,3.48,9.49,5.37c4.41,2.7,8.73,5.57,13.11,8.34
	c4.34,2.75,9.06,5.05,12.95,8.33c2.88,2.43,5.37,2.28,8.47,1.48c1.9-0.49,2.33-1.52,1.99-3.49c-0.7,0.39-1.23,0.69-1.63,0.91
	c-0.28-0.76-0.34-1.81-0.85-2.12c-5.23-3.19-10.54-6.24-15.8-9.37C323.3,45.18,320.36,43.32,317.4,41.5z M24.83,81.58l-0.02-0.01
	c-0.66,0.74-1.31,1.48-1.97,2.22c0.19,0.18,0.38,0.36,0.58,0.54c4.17-0.78,8.33-1.67,12.53-2.3c1.98-0.3,3.19-1.24,3.91-2.98
	c1.4-3.44,3.4-6.43,6.34-8.79c0.36-0.29,0.44-1.64,0.13-1.93c-1.88-1.74-3.92-3.32-6.17-5.17c-4.51,2.92-9.07,6.11-13.87,8.88
	c-3.31,1.91-4.4,4.42-3.65,7.99c0.02,0.08,0.02,0.17,0.02,0.25C22.62,81.96,23.35,82.39,24.83,81.58z M307.02,50.94
	c-7.6-5.94-15.79-10.99-24.45-15.14c-8.82-4.21-18.03-7.43-27.88-8.5c-9.69-1.05-19.33-2.64-29.55-1.82
	c0.62,1.53,1.19,2.7,1.58,3.94c2.81,8.92,5.6,17.84,8.38,26.77c1.64,5.26,1.64,5.27,7.33,5.51c15.58,0.66,31.16,1.36,46.75,1.93
	c4.88,0.18,9.77,0.03,14.81,0.03c-2.9-1.75-2.43-4.5-2.11-7.22C302.37,52.33,302.5,52.19,307.02,50.94z M221.45,60.69
	c-0.09-1.51-0.09-2.83-0.27-4.14c-0.83-6.13-1.71-12.25-2.55-18.38c-0.42-3.07-0.71-6.16-1.19-9.23c-0.59-3.78-0.65-3.9-4.36-3.77
	c-10.96,0.39-21.93,0.82-32.88,1.39c-4.93,0.26-9.84,0.96-14.77,1.33c-2.18,0.16-2.81,1.15-2.68,3.23
	c0.53,8.11,0.93,16.23,1.41,24.35c0.2,3.42,0.4,3.59,3.84,3.71c14.66,0.5,29.31,1.02,43.97,1.49
	C215.05,60.77,218.13,60.69,221.45,60.69z M159.52,29.81c-6.54,0.58-12.07,3.68-17.78,6.01c-3.55,1.44-6.72,3.82-10.09,5.73
	c-3.46,1.96-4.69,4.99-2.76,8.27c1.26,2.14,2.53,4.32,3.39,6.64c0.69,1.85,1.7,2.35,3.54,2.35c7.72,0.01,15.45,0.16,23.17,0.23
	c0.79,0.01,1.59-0.18,2.68-0.31C160.73,49.02,161.72,39.43,159.52,29.81z M479.92,103.71c-1.44-4.66-2.7-8.85-4.06-13.02
	c-0.18-0.55-0.76-1.17-1.29-1.38c-4.1-1.6-8.24-3.09-12.36-4.63c-4.04-1.51-8.06-3.05-12.1-4.55c-2.1-0.78-4.23-1.47-6.35-2.21
	c-0.15,0.18-0.29,0.36-0.44,0.53c0.5,0.92,0.94,1.87,1.52,2.74c3.35,5.02,6.86,9.93,10.03,15.06c1.16,1.88,2.45,2.54,4.54,2.78
	c3.55,0.4,7.07,1.1,10.56,1.89C473.11,101.65,476.18,102.65,479.92,103.71z M137.74,28.48c-1.95-1.9-3.67-2.39-5.93-1.7
	c-4.22,1.29-8.45,2.57-12.62,4.02c-3.91,1.35-7.79,2.81-11.6,4.41c-6.58,2.75-13.11,5.63-19.64,8.48c-4.05,1.77-8.11,3.53-12.12,5.4
	c-1.82,0.85-3.51,1.96-5.66,3.17c4.36,1.81,8.57,2.57,12.39,1.03c6.5-2.63,12.68-6.05,19.02-9.09c2.33-1.12,4.72-2.08,7.08-3.14
	c4.39-1.98,8.74-4.05,13.16-5.95C127,32.86,132.24,30.76,137.74,28.48z M477.25,129.99c-0.58-4.03-20.61-12.38-24.99-9.97
	c0.06,0.48,0.04,1,0.19,1.47c0.69,2.11,0.98,4.59,2.33,6.17c0.82,0.97,3.29,0.53,5.01,0.73c0.33,0.04,0.67,0.08,1,0.11
	C466.19,128.99,471.6,129.48,477.25,129.99z M157.86,72.17c0-0.22-0.01-0.43-0.01-0.65c-3.48,0.9-6.99,1.73-10.43,2.79
	c-0.63,0.19-1.36,1.38-1.31,2.05c0.05,0.67,0.91,1.55,1.62,1.84c1.13,0.47,2.6,0.23,3.64,0.8c5.58,3.1,10.73,2.1,15.74-1.31
	c1.02-0.7,1.53-1.76,0.28-2.29C164.31,74.11,161.97,70.67,157.86,72.17z M250.87,83.44c0.02-0.25,0.03-0.5,0.05-0.75
	c3.81,1.61,6.06-1.71,9.06-2.65c0.32-0.1,0.57-1.97,0.28-2.16c-1.75-1.19-3.55-2.52-5.54-3.07c-5.07-1.39-9.87,0.43-14.61,1.97
	c-0.53,0.17-1.1,1.11-1.11,1.7c-0.02,0.61,0.49,1.63,0.99,1.79C243.58,81.43,247.23,82.41,250.87,83.44z M28.89,116.17
	c-2.79-0.25-5.41-0.07-7.74-0.81c-2.18-0.69-4.05-2.35-6.37-3.78c0.7,2.49,1.24,4.59,1.9,6.64c0.19,0.59,0.6,1.26,1.1,1.58
	C20.3,121.34,27.12,119.28,28.89,116.17z M317.4,59.38c-0.42-0.17-0.83-0.34-1.25-0.51c-0.18,0.38-0.46,0.74-0.53,1.14
	c-0.37,2.27-1.62,3.2-3.95,3.08c-0.66-0.03-1.38,0.89-2.07,1.38c0.32,0.41,0.57,1.06,0.97,1.18c0.94,0.26,2.27,0.71,2.86,0.28
	c1.31-0.94,2.4-2.29,3.3-3.65C317.24,61.5,317.19,60.36,317.4,59.38z M310.17,61.07c-0.04-0.37-0.09-0.74-0.13-1.11
	c-2.04,0-4.09-0.04-6.13,0.04c-0.32,0.01-0.62,0.54-0.92,0.83c0.27,0.25,0.55,0.74,0.81,0.72
	C305.92,61.44,308.04,61.24,310.17,61.07z M350.95,61.37c0.18-0.27,0.36-0.54,0.53-0.81c-1.67-1.26-3.34-2.52-5.27-3.98
	c0,1.16,0,1.89,0,2.34C347.93,59.8,349.44,60.59,350.95,61.37z"/>
<path class="st0" d="M369.96,127.65c-0.88-17.53,15.26-33.44,34.26-32.23c15.36,0.97,30.35,13.79,30.31,32.6
	c-0.04,18.27-14.98,32.38-32.52,32.43C384.81,160.5,368.93,145.68,369.96,127.65z M399.68,111.99c-0.12-1.13-0.36-2.87-0.46-4.61
	c-0.09-1.58-1-2.23-2.3-1.66c-3.2,1.41-6.34,2.99-9.42,4.67c-0.36,0.2-0.52,1.77-0.2,2.06c2.44,2.17,4.86,4.46,7.62,6.16
	c2.13,1.31,4.2-0.18,4.49-2.73C399.53,114.79,399.56,113.7,399.68,111.99z M404.77,112.08c-0.04,0-0.08,0-0.11,0
	c0.06,1.25,0.08,2.51,0.2,3.75c0.25,2.66,2.49,4.12,4.72,2.71c2.63-1.66,5-3.78,7.31-5.88c0.37-0.34,0.17-2.12-0.3-2.43
	c-2.31-1.53-4.69-3.09-7.26-4.08c-3.62-1.39-4.27-0.79-4.53,3.16C404.72,110.24,404.77,111.16,404.77,112.08z M408.56,149.48
	c0.02-4.01-2.01-7.01-4-9.98c-1.11-1.66-4.13-1.64-5.14,0.18c-1.44,2.59-2.51,5.39-3.53,8.18c-0.19,0.52,0.44,1.82,0.99,2.05
	C400.82,151.58,404.76,151.52,408.56,149.48z M415.01,146.72c3.36-2.24,5.88-5.07,7.65-8.54c0.78-1.53,0.27-2.82-1.55-3.21
	c-2.7-0.58-5.4-1.2-8.13-1.58c-2.6-0.36-3.79,1.12-3.28,3.73C410.43,140.82,412.4,143.81,415.01,146.72z M395.34,136.67
	c-0.21-0.12-0.42-0.24-0.63-0.36c0.05-1.81-1.31-3.22-3.13-2.95c-2.72,0.39-5.44,0.86-8.09,1.54c-2.23,0.57-2.84,1.85-1.63,3.68
	c1.68,2.53,3.65,4.89,5.69,7.15c0.4,0.44,2.24,0.43,2.49,0.03C391.94,142.81,393.6,139.72,395.34,136.67z M424.98,126
	c-0.19-1.27-0.34-3.46-0.86-5.55c-0.81-3.26-2.54-4.11-5.41-2.39c-2.23,1.34-4.23,3.16-6.07,5.03c-1.33,1.35-0.32,4.23,1.57,4.79
	c2.52,0.74,5.06,1.5,7.65,1.87C424.79,130.17,424.97,129.85,424.98,126z M378.91,126.44c0.35,3.45,0.51,3.74,3.74,3.29
	c2.46-0.34,4.87-1.13,7.29-1.78c2.12-0.58,3.18-3.66,1.57-5.09c-2.27-2.02-4.84-3.72-7.34-5.47c-1.26-0.88-2.26-0.38-2.72,1.01
	C380.55,121.07,379.74,123.76,378.91,126.44z"/>
<path class="st0" d="M119.86,160.43c-17.45,0.12-32.02-14.16-32.51-31.48c-0.55-19.29,14.79-32.65,30.41-33.5
	c19.02-1.03,34.14,13.85,34.33,32.11C152.27,145.68,137.88,160.24,119.86,160.43z M96.26,126.66c0.24-0.01,0.48-0.01,0.72-0.02
	c-0.85,2.9,0.63,3.58,2.86,3.17c2.61-0.49,5.19-1.14,7.75-1.86c2.07-0.58,3.16-3.53,1.63-4.94c-2.36-2.17-5.05-4-7.7-5.82
	c-1.04-0.71-2.07-0.35-2.51,1.03C98.12,121.05,97.18,123.86,96.26,126.66z M143.08,126.74c-0.88-2.81-1.75-5.63-2.64-8.43
	c-0.47-1.49-1.55-1.77-2.71-0.98c-2.52,1.73-5.03,3.49-7.35,5.47c-1.37,1.17-0.87,4.5,0.65,4.95c2.78,0.83,5.61,1.62,8.48,2.01
	C142.52,130.17,142.65,129.87,143.08,126.74z M120.31,151.04c0.67-0.08,2.02-0.13,3.32-0.4c2.03-0.41,3.15-1.54,2.23-3.73
	c-0.99-2.37-1.92-4.79-3.17-7.01c-1.32-2.33-4.87-2.04-6.15,0.36c-0.51,0.95-0.83,2.01-1.35,2.96
	C111.58,149.76,113.06,150.75,120.31,151.04z M116.93,105.49c-5.2,0.23-8.83,2.36-12.15,5.11c-0.3,0.25-0.31,1.46-0.02,1.71
	c2.62,2.23,5.21,4.55,8.09,6.42c1.58,1.02,3.97-0.3,4.03-1.93C117.02,113.16,116.93,109.51,116.93,105.49z M112.96,136.85
	c-0.19-0.11-0.39-0.23-0.58-0.34c0.15-1.74-1.21-3.37-2.98-3.17c-2.65,0.3-5.29,0.82-7.91,1.33c-2.87,0.57-3.52,1.76-1.7,4.71
	c1.51,2.44,3.72,4.47,5.78,6.53c0.35,0.35,1.92,0.23,2.17-0.16C109.59,142.85,111.25,139.83,112.96,136.85z M130.55,133.08
	c-2.14,0.17-3.71,1.43-3.44,3.23c0.53,3.62,2.24,6.74,4.6,9.47c0.33,0.38,1.47,0.54,1.88,0.27c3.04-2.01,5.25-4.78,6.72-8.1
	c0.66-1.49,0.21-2.61-1.49-3C136.06,134.32,133.3,133.7,130.55,133.08z M135.26,111.25c-3.08-2.88-6.35-4.67-10.12-5.58
	c-1.52-0.36-2.46,0.06-2.51,1.76c-0.07,2.83-0.2,5.67-0.15,8.5c0.05,2.37,2.38,3.86,4.54,2.76
	C130.34,117,133.06,114.53,135.26,111.25z M123.44,131.32c0.35,0.36,0.71,0.73,1.06,1.09c0.64-0.54,1.28-1.07,1.92-1.61
	c-0.44-0.46-0.89-0.91-1.33-1.37C124.53,130.06,123.99,130.69,123.44,131.32z"/>
<path class="st0" d="M24.83,81.58c3.25-1.26,6.49-2.52,10.05-3.9c-2.72,3.54-6.1,4.46-10.06,3.89
	C24.81,81.57,24.83,81.58,24.83,81.58z"/>
</svg>
