<svg id="Layer_1" data-name="Layer 1" xmlns="http://www.w3.org/2000/svg" viewBox="0 0 468.68 142.31"><defs><style>.cls-1{fill:#fff;}</style></defs><path class="cls-1" d="M179.67,41.64c.3-.54.47-1.32.93-1.57,3-1.64,5.94-3.19,9-4.71,4.08-2.06,8.13-4.2,12.32-6a121.43,121.43,0,0,1,13.76-5.39c14.14-4.26,28.77-5.12,43.42-6.1,19.43-1.3,38.84-1,58.25-.44A169,169,0,0,1,341,19.85c6.37,1.08,12.54,3.31,18.81,5,1.42.37,3,.19,4.36.66q9.68,3.3,19.26,6.85,7.61,2.84,15.11,5.94c4.15,1.72,8.21,3.66,12.31,5.52s7.93,3.56,11.85,5.43c7.77,3.72,16.21,4.14,24.55,5,7.42.74,14.85,1.28,22.28,2,2.7.25,3.93,2,3.8,4.74-.42,8.69-.87,17.38-1,26.08-.09,5.08,1,6.12,6,8,2.19.8,3.83,2.3,3.71,5-.13,3.07.11,6.21-.51,9.18a32.88,32.88,0,0,1-3.15,7.74,6.69,6.69,0,0,0,.9,8A3,3,0,0,1,480,127c-.07.41-1.15.81-1.82.9-9.56,1.26-19.12,2.45-28.67,3.69-10,1.31-20,2.68-30,4-1.7.22-3.43.2-5.1.29-.72-4.28-1.51-8.22-2.05-12.2a38.93,38.93,0,0,0-5.61-14.94A33.13,33.13,0,0,0,392,95.41a40.37,40.37,0,0,0-16-3.81A37.08,37.08,0,0,0,341,116.27c-2.21,6.13-2.3,12.49-2.23,18.89.07,5.7.12,4.74-4.65,4.78-24.08.22-48.17.3-72.25.46-13.38.09-26.75.29-40.12.36q-34.35.18-68.71.28c-5.32,0-10.63.1-15.95.15-3.25,0-3.14,0-3.38-3.33A129.08,129.08,0,0,0,132.24,123c-1.74-9.2-5.52-17.63-12.58-24-6.9-6.21-15.35-8.61-24.63-8.5a36.67,36.67,0,0,0-21.9,7.14,32.22,32.22,0,0,0-9.3,11.66,62.05,62.05,0,0,0-6.45,27.49c0,1.44-.74,1.91-2,1.84-4.14-.24-8.28-.53-12.42-.71-5.3-.22-10.6-.49-15.9-.5a15.1,15.1,0,0,1-8.84-2.65,38.68,38.68,0,0,0-4.81-2.43l.88-.46c.25-3.32.46-6.64.78-10,.4-4.28.72-8.57,1.38-12.8S18.17,100.58,19,96.3c.05-.26-.13-.56-.21-.86,1.33-.79,1.19-.64.14.15l-.14-.15c.84-.54-.29,1,.25-.2h0c1.3-2.2,1.18-2.78-.86-4.31,1.84-4.33,5.44-7,9.43-8.87a129.13,129.13,0,0,1,14.92-6A103.41,103.41,0,0,1,56,72.7q15.24-2.83,30.55-5.25c6.37-1,12.8-1.54,19.2-2.39,9.83-1.3,19.66-2.71,29.5-4,1.35-.18,2.8.5,4.15.32,1.7-.23,4-.41,4.89-1.53,2.34-3,5.67-3.74,8.81-5.08s6.14-2.53,9.07-4.08c3.46-1.82,6.7-4,10.14-5.9,2.37-1.27,4.94-2.18,7.41-3.24-2.09,1.29-4.16,2.6-6.26,3.85-5,3-10.15,5.76-15,9-1.39.95-4.45.8-3.76,4l-2.44-1.37c.52,1.53.57,2.64,1.15,3.19,1.68,1.6,6.74,1.48,8.61.05,1.16-.89,2.37-1.72,3.6-2.52,8-5.12,15.8-10.44,23.93-15.29,7.3-4.35,14.93-8.16,22.4-12.24a15.2,15.2,0,0,0,2.06-1.78c-3.19-1-5.83-1.34-8.45.08-2.22,1.21-4.47,2.37-6.72,3.53-4.36,2.23-8.72,4.48-13.11,6.67C183.8,39.83,181.72,40.71,179.67,41.64ZM469.13,81.21c1.49.86,2.13.33,2.15-1.3,0-1.41.15-2.82.11-4.23a2,2,0,0,0-.57-1.48c-5.62-3.83-11.29-7.61-16.77-11.28-2.32,1.91-4.34,3.47-6.2,5.2-.28.27,0,1.52.36,2,1.61,2.15,4,4,4.92,6.34,1.46,3.62,3.56,5.32,7.44,5.62,3.39.26,6.73,1.24,10.09,1.89l.52-.72-2-2.08ZM192.58,63.81c2.68,0,4.72.08,6.75,0,11.51-.55,23-1.2,34.53-1.7,7.8-.34,15.6-.47,23.39-.79.82,0,2.1-.56,2.32-1.17,1.6-4.33,3-8.74,4.43-13.13,1.29-3.92,2.63-7.82,3.88-11.76,1-3.11,1.86-6.25,2.8-9.42-29.22-1.68-55.45,6.26-79,23.34a6.24,6.24,0,0,0-1.28,1.42c1.61,1.22,3.77,2,4.07,3.24C195.29,57.09,196.82,60.78,192.58,63.81Zm81.69-3.13c1.65,0,2.63,0,3.61,0,11.84-.47,23.67-1,35.52-1.42,5-.18,10-.18,14.93-.22,1.87,0,2.85-.7,2.95-2.73.41-8.36.86-16.72,1.42-25.08.14-2.15-.68-2.93-2.74-3.12-6.84-.64-13.66-1.65-20.51-2.05-8-.48-16.08-.53-24.13-.64-6.49-.09-6.46,0-7.14,6.53-.45,4.36-1,8.73-1.58,13.08C275.91,50.09,275.1,55.14,274.27,60.68Zm59.47-2.06c9.36,0,18.14,0,26.93-.06.6,0,1.42-.76,1.76-1.38,1.4-2.5,2.75-5,3.94-7.64.91-2,1.53-4.25-.67-5.85a92.79,92.79,0,0,0-9.13-6,76.85,76.85,0,0,0-9.75-4.5c-3.47-1.35-7.08-2.34-11.53-3.78C334.75,39.69,334.25,49.07,333.74,58.62Zm-314.6,44,.64.51a42.88,42.88,0,0,1,4-1.55c5.5-1.54,10.94-3.33,16.75-3.4a4,4,0,0,0,2.6-1.74c2.93-4.13,5.76-8.33,8.55-12.56C53,82,54.09,80,55.28,78.07l-.71-.61c-2.68,1.15-5.31,2.43-8,3.42-6.11,2.2-12.3,4.17-18.4,6.4-1.78.65-4.26,1.43-4.89,2.83C21.44,94.11,20.44,98.45,19.14,102.66ZM357,28.55c4.14,1.72,7.69,3.2,11.24,4.65,4.5,1.85,9.07,3.54,13.5,5.52,6.22,2.78,12.35,5.74,18.5,8.65,3.56,1.68,7.16,3.28,10.61,5.16,4.44,2.42,8.63,1.21,12.94-.39a66.77,66.77,0,0,0-8-4.26c-6.51-2.94-13-5.89-19.6-8.66-4.63-1.95-9.36-3.63-14.08-5.37q-9.57-3.53-19.19-6.93C360.85,26.18,359.23,27.22,357,28.55ZM46.71,119.14c-7-1.22-24.41,5.74-24.91,9.89,7.13-.6,14.22-1.18,21.31-1.79.37,0,.94-.23,1-.48C45,124.26,45.85,121.73,46.71,119.14ZM335.64,81c4.43-1.15,8.36-2.11,12.24-3.25a2,2,0,0,0,.1-3.69c-2.85-.93-5.75-1.73-8.67-2.4-4.29-1-7.72,1.2-11.07,3.36a2.31,2.31,0,0,0-.35,1.91C330.44,78.4,333.07,79.7,335.64,81Zm-90.42,1.29.06.8c3.67-1,7.36-2,11-3.16a2.2,2.2,0,0,0,1-1.76,2.14,2.14,0,0,0-1.07-1.69c-3.4-.88-6.84-1.58-10.27-2.34-3.8-.84-6.47,1.76-9.48,3.24-.31.16-.18,2.22,0,2.28C239.45,80.45,241.49,84,245.22,82.31Zm219.93,33.3c1,1.7,4.12,3.46,6.3,3.75,4.31.59,5,.12,6.34-4.09.34-1.11.73-2.2,1-3.33.08-.33-.23-.74-.59-1.79C475.38,116.46,469.73,114.29,465.15,115.61ZM180,59c0,1-.33,2,.07,2.63a19.88,19.88,0,0,0,3.71,4.21c.48.4,1.79-.06,2.66-.33.43-.13,1.07-.84,1-1.09-.17-.52-.77-1.32-1.15-1.3-2.91.19-4.39-1.42-5.32-3.88C180.88,59.18,180.62,59.18,180,59Zm7,.81L186.9,61c2.07.15,4.14.33,6.21.4.29,0,.6-.57.9-.88-.28-.23-.55-.66-.84-.66C191.1,59.81,189,59.83,187,59.83Zm-35.74-3.47-5.13,4.15.54.73,4.59-2.43Z" transform="translate(-13.38 -16.91)"/><path class="cls-1" d="M127.76,127c.92,17.76-14.87,32.4-31.92,32.22a32.2,32.2,0,0,1-1.75-64.33C112.84,93.84,128.75,109.63,127.76,127ZM98.4,111.38c.06,1.34.08,2.09.14,2.83.28,4,2.52,5.22,5.91,2.93a47.8,47.8,0,0,0,5.94-5c.8-.75,1.21-1.86-.2-2.66a66.61,66.61,0,0,0-7-3.92c-3.47-1.46-4.26-.83-4.63,3C98.48,109.67,98.43,110.82,98.4,111.38Zm-4.94-.17c-.09-1.1-.25-2.66-.34-4.22s-1-2.59-2.56-1.91c-3.1,1.37-6.12,2.94-9.07,4.6a2.39,2.39,0,0,0-.17,2.25,56.58,56.58,0,0,0,7.22,5.84c2.2,1.4,4.45,0,4.71-2.62C93.36,114,93.38,112.84,93.46,111.21ZM88.79,148c4.53,2.42,8.37,2.49,12.21.9a2.47,2.47,0,0,0,1.09-2.17,52.13,52.13,0,0,0-3.36-7.88c-1-1.92-4.18-2-5.23-.2C91.8,141.54,90.42,144.67,88.79,148Zm17.52-15.77c-2,.14-3.58,1.71-2.91,3.5a60.24,60.24,0,0,0,4.25,8.74,2.73,2.73,0,0,0,2.59.32,63.1,63.1,0,0,0,5.8-7.25c1.07-1.58.49-3.05-1.53-3.52C111.78,133.32,109,132.77,106.31,132.18ZM83.2,145.66c2.68-3,4.61-6,5.29-9.66.44-2.35-.82-3.87-3.18-3.55-2.7.38-5.37,1-8,1.54-1.93.41-2.43,1.75-1.57,3.35A22.58,22.58,0,0,0,83.2,145.66ZM72.83,125.57c.48,3.42.74,3.77,4,3.25A51.36,51.36,0,0,0,84,127c1.85-.56,3-3.48,1.6-4.69a64.18,64.18,0,0,0-7.81-5.76,2.45,2.45,0,0,0-2.2.91C74.49,120.11,73.71,122.86,72.83,125.57Zm45.43,3.17a17.67,17.67,0,0,0-2.08-11.4c-.27-.53-1.71-1.07-2.1-.81a83.34,83.34,0,0,0-7.71,5.61c-1.14,1-.67,4.28.58,4.58C110.59,127.61,114.07,129.55,118.26,128.74Z" transform="translate(-13.38 -16.91)"/><path class="cls-1" d="M375.2,94.85c17.15.09,31.86,14.33,32.09,31.47a32,32,0,1,1-64.05.61C343.33,108.71,357.88,95.15,375.2,94.85Zm22.66,31.25.61-.1c-.92-2.86-1.75-5.76-2.85-8.55-.23-.57-1.79-1.27-2.16-1a78.38,78.38,0,0,0-7.88,5.81c-1.15,1-.54,4.18.77,4.57,2.91.86,5.89,1.52,8.87,2.13C397.4,129.39,398.33,128.37,397.86,126.1Zm-45.71-.44c.39,3.3.53,3.6,3.56,3.22a58.36,58.36,0,0,0,7.43-1.73c2.12-.56,3.27-3.56,1.7-5a61.29,61.29,0,0,0-7.68-5.66,2.46,2.46,0,0,0-2.23.87C353.85,120.08,353.05,122.89,352.15,125.66Zm29.42,22.8c.26-3.94-2-6.85-3.66-9.9-1-1.75-4.39-1.73-5.36,0a56.32,56.32,0,0,0-3.5,8.36,2.37,2.37,0,0,0,1.11,2A13.21,13.21,0,0,0,381.57,148.46Zm-3.65-43.59c0,3.57-.06,6.76,0,9.95.08,2.94,2.36,4.44,4.8,2.89a57.31,57.31,0,0,0,7.17-5.88,2,2,0,0,0,.11-1.89C386.74,107.2,383.16,105.09,377.92,104.87Zm8.18,27.29c-2.26.13-3.87,1.42-3.57,3.3a17.3,17.3,0,0,0,4.65,9.35c.34.35,1.37.59,1.62.37,2.75-2.45,5.66-4.79,6.87-8.51.47-1.43,0-2.27-1.36-2.6C391.58,133.4,388.83,132.79,386.1,132.16Zm-17.65,3.65c-.33-2-1.68-3.61-3.42-3.4-2.85.36-5.67,1-8.49,1.54-2,.39-2.33,1.74-1.56,3.32a18.32,18.32,0,0,0,6.41,7.59,2.26,2.26,0,0,0,2.2-.38C365.32,141.66,366.86,138.72,368.45,135.81Zm-8.57-25.24a21.89,21.89,0,0,0,8.14,7.37c1.81.94,4.37-.27,4.43-2,.1-3,0-6.1-.08-9.16,0-1.66-1-2.1-2.47-1.74A21.8,21.8,0,0,0,359.88,110.57Zm9.95,17.26c-.6,1.07-1.2,1.66-1.12,2.13a1.79,1.79,0,0,0,1.34,1.13c.39,0,1.07-.81,1.1-1.3S370.54,128.82,369.83,127.83Z" transform="translate(-13.38 -16.91)"/><path class="cls-1" d="M469.14,81.2c-3.93.6-7.28-.33-10-3.83l9.95,3.85Z" transform="translate(-13.38 -16.91)"/></svg>