<svg id="Layer_1" data-name="Layer 1" xmlns="http://www.w3.org/2000/svg" viewBox="0 0 445.37 320.88"><defs><style>.cls-1{fill:#fff;}</style></defs><path class="cls-1" d="M395,313c-1.5-.11-2.8-.27-4.1-.29-39-.59-78.05-1.41-117.08-1.69q-60.33-.45-120.66,0c-14.6.08-29.19,1.19-43.79,1.62-3.66.11-5,1.53-4.94,5.06.08,9,0,18-.06,27.06-.08,7.48-1.8,9.38-9.31,9.51-10.71.18-21.42.13-32.13,0-7.48-.06-10.19-2.78-10.21-10.26-.06-24.78.33-49.56-.19-74.33C52.3,258,50,246.34,49.31,234.6c-.76-13.68-1.15-27.41-.83-41.1.12-5,3-9.83,4.16-14.85.66-2.81,1.19-6-3.11-7.26-.82-.24-1.64-4-.91-5.22,1.81-3,4.64-5.31,6.82-8.09,1.31-1.66,1.87-4,3.31-5.46A98.39,98.39,0,0,1,66.57,146c-12.06-7.19-27.46-1.57-39.26-9.7l.09-1.78L48,132.36c0-.65-.06-1.29-.1-1.93H27.46c2.74-6.62,2.57-13.37,9.36-16.15a19.26,19.26,0,0,1,6.27-1.85c6.38-.24,12.78-.17,19.17-.05,5.3.09,6.89,2.1,6.25,7.46a26.24,26.24,0,0,1-.58,3.89c-.75,2.63-1.85,5.36,2.2,6.1,3.4.62,6.32,1.77,8.47-3.28C85.59,110.15,93.12,94,101,78a252.21,252.21,0,0,1,16.38-29.09c4.47-6.68,11.05-11.33,19.88-11.71C163.87,36,190.5,34,217.15,33.64c29.59-.41,59.21.4,88.8,1.07,18,.41,36,1.92,54,2.24,12.63.23,20.54,6.94,26.09,17.12,8.76,16.09,17.19,32.37,25.49,48.7a178.92,178.92,0,0,1,8.07,19c3.47,9.37,3.56,9.58,14.27,7.28-.87-3-1.66-5.9-2.59-8.8-1.63-5.08,1.66-7.35,5.52-7.63a134.4,134.4,0,0,1,22.52,0c7.37.69,12.53,8.56,12.14,17.72H451.66l-.14,1.8,20.53,2.4c.21.62.42,1.24.64,1.86-2,1.11-3.86,2.83-6,3.22-5.69,1-11.5,1.36-17.22,2.27-5.12.82-10.17,2.05-15.25,3.1l-1.32,2c1.28.61,2.86.93,3.78,1.88,5.32,5.53,12.11,10,14.39,17.83.44,1.51-.34,4.7-1.3,5-4.6,1.65-3.58,5-2.55,7.85,4.59,12.69,6.84,25.43,4.44,39.06-1.63,9.2-.88,18.8-2.29,28-4.8,31.36-1.67,62.87-2.48,94.29-.32,12.27-1.25,13.46-13.69,13.45-9.19,0-18.38.06-27.57-.07-7.6-.1-9.6-2.13-9.75-9.86-.19-10-.19-19.92-.29-29.88A7.33,7.33,0,0,0,395,313ZM84,139.07c56.32-1.79,111.28-4.9,166.24-4.91s109.72,3.1,165.52,4.87c-2.06-5.16-3.69-9.49-5.5-13.74-7.47-17.56-15.15-35-22.46-52.67-5.82-14.05-16.39-20.51-31.22-21.08-9.36-.35-18.7-1.06-28.05-1.6-15.88-.91-31.74-2.11-47.63-2.64-45.5-1.54-90.85,1.42-136.24,4-17.32,1-27.86,9-33.93,24.66-2.75,7.07-6.46,13.77-9.4,20.78C95.49,110.57,89.93,124.47,84,139.07Zm166.36,61.44v-.4c-26.29,0-52.59,0-78.88.06a48.14,48.14,0,0,0-10.54,1.33c-5.7,1.33-8.63,5.58-7.13,11.08,1.28,4.7,3.55,9.15,5.54,13.64,6.47,14.56,13.26,29,19.44,43.66C183,280,185.2,282,196.12,282c35.89,0,71.79.07,107.68-.08,3.65,0,7.34-1.13,10.9-2.1a5.65,5.65,0,0,0,3.1-2.8c3.54-7.29,6.93-14.67,10.28-22.05s6.68-15,10-22.48c2.32-5.28,4.86-10.48,6.77-15.91,3.62-10.31-.53-15.85-11.62-16-1.69,0-3.38,0-5.08,0ZM155.05,228c-2.41-6.21-6-11.47-6.08-16.8s3.32-10.48,5.27-15.94C124.1,192.16,96.18,181.12,69.16,166c-.44,2.17-.72,3-.78,3.92-1.08,14.27,3.41,27.74,6.2,41.43.82,4,3.9,5.58,8.14,6.06,15,1.73,30,3.76,44.94,5.93C136.66,224.61,145.6,226.38,155.05,228Zm276-62.36c-27.64,16.39-56.12,26.07-88.72,30.2,15.73,10.75,7.7,21.11,1.82,32,6.53-.83,12.11-1.41,17.65-2.27,16.8-2.61,33.51-5.85,50.38-7.84,11.15-1.31,11.24-.54,14.23-11.71.24-.9.45-1.82.75-2.71C431.23,191.64,431.21,179.56,431.09,165.66Zm-74.3,120.81c1.42.06,2.85.22,4.28.17,15.36-.54,30.73-1,46.08-1.74a149.45,149.45,0,0,0,17.12-2c1.59-.26,3.88-1.57,4.26-2.86,1.61-5.5,2.85-11.17.23-17.24C402.59,264.21,378.87,272.51,356.79,286.47Zm-213.22-1a159,159,0,0,0-60.11-21.66c-13.34-2-15.43.89-11.95,14.32.1.36.11.85.35,1.05,1.54,1.28,3,3.39,4.74,3.58,10.33,1.15,20.7,2.23,31.08,2.61C119.41,285.85,131.16,285.52,143.57,285.52Z" transform="translate(-27.31 -33.53)"/><path class="cls-1" d="M172.43,235.31H327.52c-2.08,5.1-3.73,9.5-5.66,13.78-2.63,5.88-5.31,11.75-8.35,17.42a6.2,6.2,0,0,1-4.54,2.74c-39.23.14-78.46.07-117.7.16-3.14,0-4.43-1-5.63-4C181.59,255.51,177.06,245.78,172.43,235.31Zm77.72,32c17.47,0,34.94-.1,52.41.07,4.29,0,6.21-1.26,6-5.77-.26-5.25-.23-10.52,0-15.77s-1.7-7.28-7.21-7.24c-27.59.22-55.19.07-82.79.12-7.13,0-14.26.32-21.39.42-3.47,0-5.09,1.47-5,5.15a156,156,0,0,1,0,16.33c-.37,5.2,1.53,6.87,6.73,6.78C216,267.12,233.06,267.29,250.15,267.3Z" transform="translate(-27.31 -33.53)"/><path class="cls-1" d="M167.53,221.37H332.62c.74,5.08-2,6.07-6.11,6-21.21-.06-42.42,0-63.63,0Q219,227.26,175,227C171.23,227,167.12,227.28,167.53,221.37Z" transform="translate(-27.31 -33.53)"/><path class="cls-1" d="M337,207.89c2,3.65.79,5.21-3.21,5.06-9-.35-18-.93-27-.95q-64-.15-128,0c-4.3,0-8.59.71-12.89.75-1.13,0-2.27-1.29-3.4-2a18.27,18.27,0,0,1,3-2.87c.69-.43,1.83-.17,2.77-.17l166.92,0C335.83,207.76,336.39,207.84,337,207.89Z" transform="translate(-27.31 -33.53)"/><path class="cls-1" d="M384.48,278.6c12.76-4,25.24-10,39.91-8.81-.4,2.84-.74,5.35-1.23,8.81Z" transform="translate(-27.31 -33.53)"/><path class="cls-1" d="M75.58,269.74c14.44-1.12,26.91,4.75,39.94,8.05l-.1,1.43c-6.11,0-12.22.1-18.32,0-4.85-.1-9.7-.54-14.54-.75C75.76,278.15,75.14,277.46,75.58,269.74Z" transform="translate(-27.31 -33.53)"/></svg>