<svg xmlns="http://www.w3.org/2000/svg" width="54" height="54" viewBox="0 0 54 54">
  <g id="Group_3099" data-name="Group 3099" transform="translate(-20 -17)">
    <path id="Oval" d="M27,0A27,27,0,1,1,0,27,27,27,0,0,1,27,0Z" transform="translate(20 17)" fill="#0094a8"/>
    <path id="Exclusion_96" data-name="Exclusion 96" d="M13,26A13,13,0,0,1,3.794,3.819a12.976,12.976,0,0,1,18.387,0A12.988,12.988,0,0,1,13,26ZM13,2A10.987,10.987,0,0,0,5.231,20.769,10.987,10.987,0,1,0,20.769,5.231,10.923,10.923,0,0,0,13,2Z" transform="translate(34 31)" fill="rgba(255,255,255,0.9)"/>
    <path id="Path" d="M6.6,10.9a3.347,3.347,0,0,1-1.716,1.079.47.47,0,0,0-.416.535c.015.3,0,.6,0,.895a.37.37,0,0,1-.407.413c-.327.009-.655.009-.981,0a.393.393,0,0,1-.427-.437c-.005-.219-.005-.437-.005-.651-.005-.481-.02-.5-.491-.573a6.151,6.151,0,0,1-1.745-.491c-.432-.2-.476-.311-.352-.759.095-.331.184-.665.292-.992.124-.379.228-.428.585-.248a5.753,5.753,0,0,0,1.939.568,2.439,2.439,0,0,0,1.275-.165.962.962,0,0,0,.237-1.7,3.128,3.128,0,0,0-.724-.417,16.842,16.842,0,0,1-1.983-.873A2.743,2.743,0,0,1,.1,4.449,2.908,2.908,0,0,1,2.252,1.766c.531-.189.531-.18.536-.724V.493C2.8.084,2.866.012,3.283,0,3.412,0,3.54,0,3.67,0c.883,0,.883,0,.888.865.005.612,0,.617.625.709a5.606,5.606,0,0,1,1.373.4.4.4,0,0,1,.263.525c-.109.375-.213.753-.337,1.123-.115.348-.229.4-.576.236A4.481,4.481,0,0,0,3.73,3.442a1.668,1.668,0,0,0-.581.117.8.8,0,0,0-.2,1.433,3.778,3.778,0,0,0,.947.52,17.028,17.028,0,0,1,1.725.763A3.019,3.019,0,0,1,6.6,10.9Z" transform="translate(43.353 37.09)" fill="rgba(255,255,255,0.9)"/>
  </g>
</svg>
