<svg xmlns="http://www.w3.org/2000/svg" width="25.434" height="25.417" viewBox="0 0 25.434 25.417">
  <g id="icons_contact" data-name="icons/contact" transform="translate(-1.546 2.23)">
    <path id="Shape" d="M10.3,5.833C9.973,2.025,6,.156,5.832.08a.844.844,0,0,0-.5-.068C.742.773.052,3.442.024,3.553a.858.858,0,0,0,.017.468C5.512,20.993,16.88,24.138,20.616,25.173c.288.08.525.144.705.2a.826.826,0,0,0,.267.042.857.857,0,0,0,.359-.078c.114-.052,2.815-1.324,3.475-5.473a.864.864,0,0,0-.083-.53,8.221,8.221,0,0,0-5.388-3.752.847.847,0,0,0-.766.182,11.58,11.58,0,0,1-3.68,2.3c-4.938-2.414-7.7-7.047-7.8-7.926-.061-.494,1.071-2.229,2.373-3.64A.865.865,0,0,0,10.3,5.833Z" transform="translate(1.546 -2.23)" fill="#48b2ff"/>
  </g>
</svg>
