<svg xmlns="http://www.w3.org/2000/svg" width="30.053" height="30.061" viewBox="0 0 30.053 30.061">
  <g id="icons_contact_copy" data-name="icons/contact copy" transform="translate(19.444 4.626)">
    <path id="Shape" d="M28.8,30.061h0l-6.068-2.232a2.181,2.181,0,0,0-.874-.174,2.319,2.319,0,0,0-.81.144c0,.008-.008.008-.015.008a.561.561,0,0,0-.123.051,15.451,15.451,0,0,1-5.877,1.149A15.214,15.214,0,0,1,4.4,24.759a14.145,14.145,0,0,1,0-20.511A15.215,15.215,0,0,1,15.033,0a15.4,15.4,0,0,1,5.979,1.193,14.965,14.965,0,0,1,4.84,3.245,14.134,14.134,0,0,1,1.814,17.912,2.266,2.266,0,0,0-.163.24l-.017.027a2.163,2.163,0,0,0-.282,1.055l1.6,6.385ZM21.972,12.718a2.313,2.313,0,1,0,2.313,2.312A2.315,2.315,0,0,0,21.972,12.718Zm-6.939,0a2.313,2.313,0,1,0,2.314,2.312A2.315,2.315,0,0,0,15.033,12.718Zm-6.939,0a2.313,2.313,0,1,0,2.314,2.312A2.315,2.315,0,0,0,8.094,12.718Z" transform="translate(-19.444 -4.626)" fill="#1dd3a1"/>
  </g>
</svg>
