<svg xmlns="http://www.w3.org/2000/svg" width="33.636" height="37.459" viewBox="0 0 33.636 37.459">
  <g id="documents" transform="translate(-0.5)">
    <path id="Path_7382" data-name="Path 7382" d="M72.094,0H97.318V18.76H72.094Zm0,0" transform="translate(-66.356)" fill="#ccc"/>
    <path id="Path_7383" data-name="Path 7383" d="M31.434,47.406H56.658V66.167H31.434Zm0,0" transform="translate(-28.671 -43.938)" fill="#e6e6e6"/>
    <path id="Path_7384" data-name="Path 7384" d="M56.658,80.445V96.789H31.434V85.537a3.439,3.439,0,0,1,1.172-.2h9.841A3.434,3.434,0,0,0,45.368,83.7l1.007-1.629A3.437,3.437,0,0,1,49.3,80.445Zm0,0" transform="translate(-28.671 -74.56)" fill="#ccc"/>
    <path id="Path_7385" data-name="Path 7385" d="M17.7,105.062,16.7,106.691a3.435,3.435,0,0,1-2.922,1.629H3.934A3.435,3.435,0,0,0,.5,111.755V129.89a3.435,3.435,0,0,0,3.435,3.435H30.7a3.435,3.435,0,0,0,3.435-3.435V106.868a3.435,3.435,0,0,0-3.435-3.435H20.626a3.434,3.434,0,0,0-2.922,1.629Zm0,0" transform="translate(0 -95.866)" fill="#f4d553"/>
    <path id="Path_7386" data-name="Path 7386" d="M186.771,106.692l1.007-1.629a3.434,3.434,0,0,1,2.922-1.629h-1.892a3.434,3.434,0,0,0-2.922,1.629l-1.007,1.629a3.435,3.435,0,0,1-2.922,1.629h1.892A3.435,3.435,0,0,0,186.771,106.692Zm0,0" transform="translate(-168.182 -95.867)" fill="#f2a755"/>
    <path id="Path_7387" data-name="Path 7387" d="M2.392,191.8V173.669a3.434,3.434,0,0,1,3.435-3.435H3.935A3.435,3.435,0,0,0,.5,173.669V191.8a3.435,3.435,0,0,0,3.435,3.435H5.826A3.435,3.435,0,0,1,2.392,191.8Zm0,0" transform="translate(0 -157.78)" fill="#f2a755"/>
    <path id="Path_7388" data-name="Path 7388" d="M69.885,241.658H59.519a2.227,2.227,0,0,1-2.227-2.227v-2.325a2.227,2.227,0,0,1,2.227-2.227H69.885a2.227,2.227,0,0,1,2.227,2.227v2.325A2.227,2.227,0,0,1,69.885,241.658Zm0,0" transform="translate(-52.638 -217.695)" fill="#e6e6e6"/>
    <g id="Group_2979" data-name="Group 2979" transform="translate(7.439 18.773)">
      <path id="Path_7389" data-name="Path 7389" d="M104,290.491h-8.04a.6.6,0,0,1,0-1.21H104a.6.6,0,0,1,0,1.21Zm0,0" transform="translate(-95.356 -286.89)" fill="#1a414c"/>
      <path id="Path_7390" data-name="Path 7390" d="M104,257.808h-8.04a.6.6,0,0,1,0-1.21H104a.6.6,0,0,1,0,1.21Zm0,0" transform="translate(-95.356 -256.598)" fill="#1a414c"/>
    </g>
  </g>
</svg>
