<svg xmlns="http://www.w3.org/2000/svg" xmlns:xlink="http://www.w3.org/1999/xlink" width="49.001" height="52" viewBox="0 0 49.001 52">
  <defs>
    <linearGradient id="linear-gradient" x1="0.5" x2="0.5" y2="1" gradientUnits="objectBoundingBox">
      <stop offset="0" stop-color="#1961c6"/>
      <stop offset="1" stop-color="#aa8f03"/>
    </linearGradient>
  </defs>
  <g id="Group_3101" data-name="Group 3101" transform="translate(-129 -266)">
    <path id="Intersection_2" data-name="Intersection 2" d="M4.4,52A35.016,35.016,0,0,1,49,2.912V42A10,10,0,0,1,39,52Z" transform="translate(129 266)" opacity="0.4" fill="url(#linear-gradient)"/>
    <path id="Icon_ionic-ios-arrow-forward" data-name="Icon ionic-ios-arrow-forward" d="M16.014,12.162,11.5,7.649a.849.849,0,0,1,0-1.2.86.86,0,0,1,1.208,0l5.117,5.114a.851.851,0,0,1,.025,1.176l-5.139,5.149a.853.853,0,1,1-1.208-1.2Z" transform="translate(143.339 280.84)" fill="#fff"/>
  </g>
</svg>
