<svg xmlns="http://www.w3.org/2000/svg" width="37.447" height="42.888" viewBox="0 0 37.447 42.888">
  <g id="gift-box" transform="translate(-32.482 0)">
    <path id="Path_7715" data-name="Path 7715" d="M67.275,242.557,63.2,241.074a1.175,1.175,0,0,0-.427-.075H36.692a1.244,1.244,0,0,0-1.257,1.256V259.93a3.764,3.764,0,0,0,3.77,3.77h25.13a3.764,3.764,0,0,0,3.77-3.77V243.738A1.247,1.247,0,0,0,67.275,242.557Z" transform="translate(-2.705 -220.811)" fill="#fc1a40"/>
    <path id="Path_7716" data-name="Path 7716" d="M246.77,243.738V259.93A3.764,3.764,0,0,1,243,263.7H230.435V241h11.007a1.175,1.175,0,0,1,.427.075l4.071,1.483A1.247,1.247,0,0,1,246.77,243.738Z" transform="translate(-181.371 -220.811)" fill="#c60034"/>
    <path id="Path_7717" data-name="Path 7717" d="M179.84,8.192A5.087,5.087,0,0,0,176.4,4.548,5.007,5.007,0,0,0,171.522,5.6l-2.915,2.563-.578-3.845A5.091,5.091,0,0,0,164.938.376a4.771,4.771,0,0,0-.98-.277,5,5,0,0,0-3.971.88,5.074,5.074,0,0,0,1.257,8.9l2.714.98,3.342,1.231h.025l5.805,2.136a5.392,5.392,0,0,0,1.759.3,5.121,5.121,0,0,0,4.951-6.333Z" transform="translate(-114.894)" fill="#fe9923"/>
    <path id="Path_7718" data-name="Path 7718" d="M244.759,14.3a5.082,5.082,0,0,1-3.393,1.307,5.392,5.392,0,0,1-1.759-.3L233.8,13.174h-.025l-3.342-1.231V1.187a4.777,4.777,0,0,1,.98.277,5.091,5.091,0,0,1,3.091,3.945l.578,3.845L238,6.69a5.007,5.007,0,0,1,4.875-1.055,5.092,5.092,0,0,1,1.885,8.67Z" transform="translate(-181.371 -1.087)" fill="#fe8821"/>
    <path id="Path_7719" data-name="Path 7719" d="M69.7,65.8l-1.709,4.724a1.273,1.273,0,0,1-1.181.8,1.175,1.175,0,0,1-.427-.075L53.386,66.533l-1.181-3.9-3.141.7-2.764.628L33.308,59.245a1.279,1.279,0,0,1-.754-1.608l1.734-4.724a3.746,3.746,0,0,1,4.825-2.262l9.952,3.619.679.251s2.714,4.926,2.789,4.926c.05,0,1.131-.6,2.186-1.181s2.111-1.181,2.111-1.181l10.6,3.87a3.809,3.809,0,0,1,2.136,1.96A3.719,3.719,0,0,1,69.7,65.8Z" transform="translate(0 -46.194)" fill="#ff3e75"/>
    <path id="Path_7720" data-name="Path 7720" d="M251.067,107.934l-1.709,4.724a1.273,1.273,0,0,1-1.181.8,1.175,1.175,0,0,1-.427-.075l-12.992-4.724-1.181-3.9-3.141.7V96.4l.679.251s2.714,4.926,2.789,4.926c.05,0,1.131-.6,2.186-1.181s2.111-1.181,2.111-1.181l10.6,3.87a3.809,3.809,0,0,1,2.136,1.96A3.72,3.72,0,0,1,251.067,107.934Z" transform="translate(-181.371 -88.324)" fill="#fc1a40"/>
    <g id="Group_3078" data-name="Group 3078" transform="translate(45.295 8.326)">
      <path id="Path_7721" data-name="Path 7721" d="M185.435,241v22.7h7.539V241Z" transform="translate(-185.435 -229.138)" fill="#fcbf29"/>
      <path id="Path_7722" data-name="Path 7722" d="M200.878,99.4l-.679,1.86-2.764,7.589,2.764,1.005,3.141,1.131,1.181.427,3.443-9.449Z" transform="translate(-196.43 -99.398)" fill="#fcbf29"/>
    </g>
    <g id="Group_3079" data-name="Group 3079" transform="translate(49.064 8.326)">
      <rect id="Rectangle_1982" data-name="Rectangle 1982" width="3.77" height="22.701" transform="translate(0 11.861)" fill="#fe9923"/>
      <path id="Path_7723" data-name="Path 7723" d="M238.2,101.961l-3.443,9.449-1.181-.427-3.141-1.131v-8.595l.678-1.86Z" transform="translate(-230.435 -99.398)" fill="#fe9923"/>
    </g>
  </g>
</svg>
