<svg xmlns="http://www.w3.org/2000/svg" width="24" height="24" viewBox="0 0 24 24">
  <path id="Shape" d="M0,12c0-1.235,2.437-1.352,2.489,0C2.7,17.379,6.619,21.5,12,21.5A9.353,9.353,0,0,0,21.524,12,9.391,9.391,0,0,0,12,2.452,9.625,9.625,0,0,0,4.286,6L6,7.718a.5.5,0,0,1-.353.853H.2a.2.2,0,0,1-.2-.2V2.921a.5.5,0,0,1,.853-.354L2.726,4.44A11.96,11.96,0,1,1,0,12Zm8,3a1.015,1.015,0,0,1-1-1.016.951.951,0,0,1,1-.96h4.04L12,7c0-.545,0-1,1-1s1,.448,1,1v6.026A2.151,2.151,0,0,1,11.977,15Z" transform="translate(0 0)" fill="#bec2ce"/>
</svg>
