<svg xmlns="http://www.w3.org/2000/svg" xmlns:xlink="http://www.w3.org/1999/xlink" width="374" height="231" viewBox="0 0 374 231">
  <defs>
    <filter id="Rectangle_7" x="0" y="0" width="1200" height="1200" filterUnits="userSpaceOnUse">
      <feOffset dy="3" input="SourceAlpha"/>
      <feGaussianBlur stdDeviation="5" result="blur"/>
      <feFlood flood-opacity="0.078"/>
      <feComposite operator="in" in2="blur"/>
    </filter>
    <clipPath id="clip-path">
      <path id="Profile" d="M59.279,64.522H5.644S2.025,64.759.43,62.563C-.43,61.375.169,58.97.758,57.626L2.2,54.336s3.989-8.926,8.53-14.1c2.79-3.173,6.109-2.45,8.255-1.418,1.323.634,2.817,2.482,3.907,3.464a12.692,12.692,0,0,0,8.509,2.97h2.664a12.676,12.676,0,0,0,8.5-2.97c1.09-.982,2.542-2.888,3.854-3.543a5.929,5.929,0,0,1,7.682,1.5C58.65,45.411,62.249,54.5,62.249,54.5l1.478,3.226c.612,1.333,1.238,3.725.4,4.929-1.181,1.7-3.525,1.879-4.456,1.879C59.426,64.534,59.279,64.522,59.279,64.522Zm-43.885-46.5C15.394,7.672,22.913,0,32.192,0S49,7.672,49,18.021,41.472,36.77,32.192,36.77,15.394,28.372,15.394,18.021Z" fill="#9b9b9b"/>
    </clipPath>
  </defs>
  <g id="Identification_card" data-name="Identification card" transform="translate(15 12)">
    <g transform="matrix(1, 0, 0, 1, -15, -12)" filter="url(#Rectangle_7)">
      <rect id="Rectangle_7-2" data-name="Rectangle 7" width="344" height="201" rx="8" transform="translate(15 12)" fill="#fff" opacity="0.95"/>
    </g>
    <path id="Rectangle" d="M8,0H93a8,8,0,0,1,8,8V114a8,8,0,0,1-8,8H8a8,8,0,0,1-8-8V8A8,8,0,0,1,8,0Z" transform="translate(24 22)" fill="#48b2ff"/>
    <rect id="Rectangle_Copy" data-name="Rectangle Copy" width="173" height="52" rx="8" transform="translate(147 22)" fill="#f1f2f6"/>
    <rect id="Rectangle_Copy_2" data-name="Rectangle Copy 2" width="173" height="16" rx="8" transform="translate(147 81)" fill="#f1f2f6"/>
    <rect id="Rectangle_Copy_3" data-name="Rectangle Copy 3" width="173" height="16" rx="8" transform="translate(147 106)" fill="#f1f2f6"/>
    <rect id="Rectangle_Copy_4" data-name="Rectangle Copy 4" width="173" height="16" rx="8" transform="translate(147 129)" fill="#f1f2f6"/>
    <g id="icons_tabbar_profile" data-name="icons/tabbar/profile" transform="translate(40 44.393)">
      <g id="Group_3049" data-name="Group 3049" transform="translate(11.733 11.507)" clip-path="url(#clip-path)">
        <g id="Colors_Primary" data-name="Colors/Primary" transform="translate(-11.733 -11.507)">
          <rect id="Colors_Primary_background" data-name="Colors/Primary background" width="88" height="88" transform="translate(0 -0.393)" fill="rgba(0,0,0,0)"/>
          <rect id="Rectangle_3" data-name="Rectangle 3" width="5488" height="88" transform="translate(0 -0.393)" fill="#fff"/>
        </g>
      </g>
    </g>
  </g>
</svg>
