<svg id="_002-internet" data-name="002-internet" xmlns="http://www.w3.org/2000/svg" xmlns:xlink="http://www.w3.org/1999/xlink" width="212.893" height="212.823" viewBox="0 0 212.893 212.823">
  <defs>
    <linearGradient id="linear-gradient" x1="0.5" x2="0.58" y2="1.631" gradientUnits="objectBoundingBox">
      <stop offset="0" stop-color="#27a4d8"/>
      <stop offset="1" stop-color="#b2d34e"/>
    </linearGradient>
    <linearGradient id="linear-gradient-2" x2="1.162" y2="1.065" xlink:href="#linear-gradient"/>
  </defs>
  <path id="Path_96" data-name="Path 96" d="M168.273,157.946a53.827,53.827,0,0,1,16.689,2.629V118.432H21.786V222.074a7.11,7.11,0,0,0,5.189,6.837h89.266a53.877,53.877,0,0,1-2.559-16.374A54.63,54.63,0,0,1,168.273,157.946Z" transform="translate(-9.97 -54.235)" fill="#fff"/>
  <path id="Path_97" data-name="Path 97" d="M184.927,28.968a7.123,7.123,0,0,0-7.117-7.117H28.9a7.123,7.123,0,0,0-7.117,7.117V62.417H184.927Z" transform="translate(-9.97 -10.035)" fill="url(#linear-gradient)"/>
  <path id="Path_98" data-name="Path 98" d="M298.619,255.879a42.74,42.74,0,1,0-42.74,42.74A42.773,42.773,0,0,0,298.619,255.879Z" transform="translate(-97.542 -97.577)" fill="#fff"/>
  <path id="Path_99" data-name="Path 99" d="M265.785,296.838a30.924,30.924,0,1,1,30.924-30.924A30.974,30.974,0,0,1,265.785,296.838Z" transform="translate(-107.483 -107.577)" fill="url(#linear-gradient-2)"/>
  <g id="Group_65" data-name="Group 65" transform="translate(0 0)">
    <path id="Path_100" data-name="Path 100" d="M285.958,264.881l-20.511,14.761-3.05-5.575a5.932,5.932,0,1,0-10.379,5.75l6.276,11.43a5.62,5.62,0,0,0,3.892,2.945,7.429,7.429,0,0,0,4.733-1.052l25.911-18.653a5.9,5.9,0,0,0,1.333-8.239A5.825,5.825,0,0,0,285.958,264.881Z" transform="translate(-114.998 -120.744)" fill="#1a252c"/>
    <path id="Path_101" data-name="Path 101" d="M56.882,47.321H47.17a5.925,5.925,0,0,0,0,11.85h9.712a5.925,5.925,0,1,0,0-11.85Z" transform="translate(-18.876 -21.691)" fill="#1a252c"/>
    <path id="Path_102" data-name="Path 102" d="M124.114,47.321H114.4a5.925,5.925,0,1,0,0,11.85h9.712a5.925,5.925,0,1,0,0-11.85Z" transform="translate(-49.644 -21.691)" fill="#1a252c"/>
    <path id="Path_103" data-name="Path 103" d="M235.49,47.321h-60.9a5.925,5.925,0,1,0,0,11.85h60.9a5.925,5.925,0,1,0,0-11.85Z" transform="translate(-77.188 -21.691)" fill="#1a252c"/>
    <path id="Path_104" data-name="Path 104" d="M186.842,111.911V19A18.966,18.966,0,0,0,167.909.065H18.933A18.966,18.966,0,0,0,0,19V167.9a18.966,18.966,0,0,0,18.933,18.933h92.877a54.537,54.537,0,1,0,75.032-74.927ZM11.816,19a7.123,7.123,0,0,1,7.117-7.117H167.839A7.123,7.123,0,0,1,174.957,19V52.447H11.816V19Zm94.56,156.024H18.933a7.123,7.123,0,0,1-7.117-7.117V64.262H174.957v42.144a54.549,54.549,0,0,0-71.28,52A54.3,54.3,0,0,0,106.376,175.022Zm51.926,26.12a42.74,42.74,0,1,1,42.74-42.74A42.773,42.773,0,0,1,158.3,201.142Z" transform="translate(0 -0.065)" fill="#1a252c"/>
  </g>
  <path id="Path_105" data-name="Path 105" d="M178.243,167.946a44.811,44.811,0,0,1,4.874.246V140.283H43.572v7.854h29.7a5.925,5.925,0,1,1,0,11.85h-29.7v16.058H53.6a5.925,5.925,0,1,1,0,11.85H43.572v39.549h80.29c-.14-1.578-.246-3.225-.246-4.874A54.691,54.691,0,0,1,178.243,167.946Z" transform="translate(-19.94 -64.235)" fill="#1a252c"/>
</svg>
