<svg xmlns="http://www.w3.org/2000/svg" width="21" height="26" viewBox="0 0 21 26">
  <g id="Group_3098" data-name="Group 3098" transform="translate(21) rotate(90)" opacity="0.998">
    <path id="Path-103" d="M19.5,2.483a1.254,1.254,0,0,1-1.3-1.24A1.256,1.256,0,0,1,19.5,0h1.3A5.038,5.038,0,0,1,26,4.988V13a5.046,5.046,0,0,1-5.2,5H5.2A5.178,5.178,0,0,1,0,12.841V4.988A5.038,5.038,0,0,1,5.2,0H6.5A1.248,1.248,0,0,1,7.8,1.233,1.294,1.294,0,0,1,6.5,2.522H5.2A2.6,2.6,0,0,0,2.483,4.988L2.533,13A2.615,2.615,0,0,0,5.2,15.537H20.8A2.646,2.646,0,0,0,23.5,13V4.988a2.619,2.619,0,0,0-2.7-2.505Z" transform="translate(26 17.996) rotate(180)" fill="#bec2ce"/>
    <rect id="Rectangle-path" width="2.6" height="16.33" rx="1" transform="translate(11.274 4.67)" fill="#bec2ce"/>
    <path id="Path-104-path" d="M8.181.4a1.259,1.259,0,0,1,1.838,0,1.406,1.406,0,0,1,0,1.924l-3.9,4.082a1.259,1.259,0,0,1-1.838,0L.381,2.323A1.406,1.406,0,0,1,.381.4,1.259,1.259,0,0,1,2.219.4L5.2,3.519Z" transform="translate(18.2 11.109) rotate(180)" fill="#bec2ce"/>
  </g>
</svg>
