<?xml version="1.0" encoding="utf-8"?>
<!-- Generator: Adobe Illustrator 25.2.3, SVG Export Plug-In . SVG Version: 6.00 Build 0)  -->
<svg version="1.1" id="Layer_1" xmlns="http://www.w3.org/2000/svg" xmlns:xlink="http://www.w3.org/1999/xlink" x="0px" y="0px"
	 viewBox="0 0 94.6 94.6" style="enable-background:new 0 0 94.6 94.6;" xml:space="preserve">
<style type="text/css">
	.st0{fill:#242A37;}
</style>
<g id="Group_3107" transform="translate(6.813 -362.187)">
	<path id="Shape" class="st0" d="M42,390.9l11.2,24.3c0.3,0.5,0.2,1-0.1,1.4c-0.1,0.1-0.1,0.2-0.2,0.2c-0.2,0.2-0.5,0.3-0.8,0.4
		c-0.3,0-0.6-0.1-0.8-0.2l-9.8-7.5L30.8,418c-0.2,0.3-0.4,0.4-0.7,0.5c-0.3,0.1-0.6,0.1-0.9,0c-0.6-0.2-0.9-0.9-0.8-1.5l11-25.6
		c0-0.2,0.1-0.4,0.3-0.6c0.2-0.3,0.5-0.5,0.9-0.6C41.2,390.1,41.7,390.4,42,390.9L42,390.9z"/>
</g>
</svg>
