<svg xmlns="http://www.w3.org/2000/svg" width="18.612" height="22.696" viewBox="0 0 18.612 22.696">
  <g id="notification" transform="translate(-0.499 -1.532)">
    <path id="Path_7724" data-name="Path 7724" d="M142.867,395.091a2.838,2.838,0,1,0-2.838,2.833A2.835,2.835,0,0,0,142.867,395.091Zm0,0" transform="translate(-130.224 -373.696)" fill="#f7c92b"/>
    <path id="Path_7725" data-name="Path 7725" d="M180.555,392.258a2.837,2.837,0,0,0-.825.122,2.832,2.832,0,0,1,0,5.422,2.834,2.834,0,1,0,.825-5.544Zm0,0" transform="translate(-170.75 -373.696)" fill="#f2b51d"/>
    <path id="Path_7726" data-name="Path 7726" d="M163.6,35.7a1.68,1.68,0,1,1,1.318-1.978A1.683,1.683,0,0,1,163.6,35.7Zm0,0" transform="translate(-153.463 -30.836)" fill="#f7c92b"/>
    <path id="Path_7727" data-name="Path 7727" d="M187.188,33.717a1.683,1.683,0,0,0-1.982-1.316,1.719,1.719,0,0,0-.246.069,1.68,1.68,0,0,1,0,3.157,1.683,1.683,0,0,0,2.227-1.91Zm0,0" transform="translate(-175.733 -30.836)" fill="#f2b51d"/>
    <path id="Path_7728" data-name="Path 7728" d="M16.834,106.933H2.777a2.281,2.281,0,0,1-1.42-4.063l.452-.364A4.428,4.428,0,0,0,3.46,99.058V96.669a6.394,6.394,0,0,1,12.787,0V99.1a4.428,4.428,0,0,0,1.6,3.4l.44.366a2.3,2.3,0,0,1,.828,1.766v.023a2.275,2.275,0,0,1-2.277,2.274Zm0,0" transform="translate(0 -86.013)" fill="#f7e249"/>
    <path id="Path_7729" data-name="Path 7729" d="M170.344,102.868l-.44-.366a4.428,4.428,0,0,1-1.6-3.4V96.665a6.4,6.4,0,0,0-8.2-6.126,6.387,6.387,0,0,1,4.592,6.126V99.1a4.428,4.428,0,0,0,1.6,3.4l.44.366a2.3,2.3,0,0,1,.828,1.766v.023a2.275,2.275,0,0,1-2.277,2.274h3.6a2.275,2.275,0,0,0,2.277-2.274v-.023a2.3,2.3,0,0,0-.828-1.766Zm0,0" transform="translate(-152.061 -86.01)" fill="#f7c92b"/>
  </g>
</svg>
