<svg xmlns="http://www.w3.org/2000/svg" width="39.386" height="39.384" viewBox="0 0 39.386 39.384">
  <g id="location" transform="translate(-6.306 -6.31)">
    <path id="Path_7399" data-name="Path 7399" d="M40.822,84.289H30.529A62.441,62.441,0,0,1,26,90.56a62.438,62.438,0,0,1-4.53-6.271H11.176L6.306,97.057H45.692Z" transform="translate(0 -51.362)" fill="#dfeef4"/>
    <path id="Path_7400" data-name="Path 7400" d="M43.772,6.31A10.483,10.483,0,0,0,33.289,16.792c-.061,10,10.482,22.405,10.482,22.405s10.544-12.4,10.482-22.405A10.483,10.483,0,0,0,43.772,6.31Zm0,14.93a4.448,4.448,0,1,1,4.448-4.448,4.448,4.448,0,0,1-4.448,4.448Z" transform="translate(-17.773 0)" fill="#f45858"/>
    <path id="Path_7401" data-name="Path 7401" d="M58.034,87.249,38.38,94.24l-7.66-9.95h6.83a62.377,62.377,0,0,0,4.529,6.27,62.38,62.38,0,0,0,4.529-6.27H56.9Z" transform="translate(-16.081 -51.363)" fill="#f2da30"/>
    <path id="Path_7402" data-name="Path 7402" d="M29.96,108.34l19.455-6.92,5.326,6.92Z" transform="translate(-15.58 -62.646)" fill="#3ea2e5"/>
  </g>
</svg>
