<svg xmlns="http://www.w3.org/2000/svg" width="40" height="50" viewBox="0 0 38.393 43.934">
  <g id="delivery-box" transform="translate(-32.286)">
    <path id="Path_7313" data-name="Path 7313" d="M50.839.172,32.93,10.512a1.287,1.287,0,0,0-.644,1.115v20.68a1.287,1.287,0,0,0,.644,1.115l17.909,10.34a1.287,1.287,0,0,0,1.287,0l17.909-10.34a1.287,1.287,0,0,0,.644-1.115V11.627a1.287,1.287,0,0,0-.644-1.115L52.126.172a1.287,1.287,0,0,0-1.287,0Z" fill="#ffb454"/>
    <path id="Path_7314" data-name="Path 7314" d="M53.32,21.968,72.344,10.984a1.286,1.286,0,0,0-.471-.471L53.964.173a1.287,1.287,0,0,0-1.287,0L34.767,10.513a1.286,1.286,0,0,0-.471.471Z" transform="translate(-1.838 -0.001)" fill="#ffd321"/>
    <path id="Path_7315" data-name="Path 7315" d="M275.024,10.983a1.286,1.286,0,0,0-.471-.471L256.644.172A1.286,1.286,0,0,0,256,0V21.967Z" transform="translate(-204.518)" fill="#ffb454"/>
    <path id="Path_7316" data-name="Path 7316" d="M256,160.95a1.286,1.286,0,0,0,.644-.172l17.909-10.34a1.287,1.287,0,0,0,.644-1.115v-20.68a1.286,1.286,0,0,0-.172-.644L256,138.983Z" transform="translate(-204.517 -117.017)" fill="#ff936b"/>
    <path id="Path_7317" data-name="Path 7317" d="M311.814,244.289l7.389-4.265a1.287,1.287,0,1,0-1.287-2.229l-7.389,4.265a1.287,1.287,0,1,0,1.287,2.229Z" transform="translate(-253.777 -217.232)" fill="#1e354b"/>
    <path id="Path_7318" data-name="Path 7318" d="M319.675,324.371a1.287,1.287,0,0,0-1.758-.471l-7.389,4.266a1.287,1.287,0,1,0,1.287,2.229l7.389-4.266A1.287,1.287,0,0,0,319.675,324.371Z" transform="translate(-253.778 -295.949)" fill="#1e354b"/>
    <path id="Path_7319" data-name="Path 7319" d="M126.08,40.776l-19.2,11.083-.005,6.629a1.287,1.287,0,0,0,.644,1.116l3.83,2.211a1.287,1.287,0,0,0,1.931-1.115V55.553l19.2-11.083Z" transform="translate(-68.191 -37.277)" fill="#fff7f4"/>
    <g id="Group_2970" data-name="Group 2970" transform="translate(38.687 3.499)">
      <path id="Path_7320" data-name="Path 7320" d="M256,44.476v7.389l12.8-7.393-6.4-3.694Z" transform="translate(-243.204 -40.778)" fill="#f0e6e6"/>
      <path id="Path_7321" data-name="Path 7321" d="M113.283,178.779v-5.147l-6.4-3.694-.005,6.629a1.287,1.287,0,0,0,.643,1.116l3.83,2.211A1.287,1.287,0,0,0,113.283,178.779Z" transform="translate(-106.879 -158.854)" fill="#f0e6e6"/>
    </g>
  </g>
</svg>
