<svg id="Group_3098" data-name="Group 3098" xmlns="http://www.w3.org/2000/svg" width="49" height="49" viewBox="0 0 49 49">
  <circle id="Oval" cx="24.5" cy="24.5" r="24.5" fill="#0094a8"/>
  <g id="icons_card" data-name="icons/card" transform="translate(13 16)">
    <path id="Shape" d="M3,17.333a3.027,3.027,0,0,1-3-3.047V6.366H24v7.921a3.028,3.028,0,0,1-3,3.047Zm14.667-5.077A1.334,1.334,0,1,0,19,10.9,1.345,1.345,0,0,0,17.667,12.256Zm-3.334,0A1.334,1.334,0,1,0,15.666,10.9,1.345,1.345,0,0,0,14.333,12.256ZM0,3.656V3.046A3.027,3.027,0,0,1,3,0H21a3.027,3.027,0,0,1,3,3.046v.609Z" fill="#fff"/>
  </g>
</svg>
