<svg xmlns="http://www.w3.org/2000/svg" width="46.851" height="43.934" viewBox="0 0 46.851 43.934">
  <g id="groceries" transform="translate(0.001 18.691)">
    <path id="Path_7651" data-name="Path 7651" d="M237.2,8.06a31.7,31.7,0,0,0-3.1,4.9l-.152-.068L227.6,10.032c-1.315-3.746-.88-7.009.422-7.009,1.281,0,2.668,3.179,2.712,3.278-.018-.121-.73-4.822,1.411-4.822a1.982,1.982,0,0,1,1.811,1.543,6.9,6.9,0,0,1,.358,2.07S235.942,1.4,237.9,1.946,238.3,6.963,237.2,8.06Z" transform="translate(-207.98 -18.496)" fill="#95d6a4"/>
    <path id="Path_7652" data-name="Path 7652" d="M233.614,11.614a3.137,3.137,0,0,1,.336,1.281L227.6,10.032c-1.315-3.746-.88-7.009.422-7.009,1.281,0,2.668,3.179,2.712,3.278-.018-.121-.73-4.822,1.411-4.822a1.982,1.982,0,0,1,1.811,1.543h0C233.207,1.48,231.01,5.93,233.614,11.614Z" transform="translate(-207.98 -18.496)" fill="#78c2a4"/>
    <g id="Group_3065" data-name="Group 3065" transform="translate(12.975 -18.691)">
      <ellipse id="Ellipse_44" data-name="Ellipse 44" cx="15.835" cy="8.122" rx="15.835" ry="8.122" transform="translate(0 22.391) rotate(-45)" fill="#e49542"/>
      <g id="Group_3064" data-name="Group 3064" transform="translate(4.356 4.349)">
        <path id="Path_7653" data-name="Path 7653" d="M210.164,57.482c-3.172-3.172-.73-10.756,5.454-16.94s13.769-8.626,16.94-5.454c-1.335-1.335-7.431,2.6-13.615,8.78S208.829,56.147,210.164,57.482Z" transform="translate(-208.774 -33.698)" fill="#e28424"/>
        <path id="Path_7654" data-name="Path 7654" d="M378.579,89.948l-4.66-4.66a1.374,1.374,0,1,0-1.944,1.944l4.66,4.66a1.374,1.374,0,1,0,1.944-1.944Z" transform="translate(-358.058 -80.636)" fill="#e28424"/>
        <path id="Path_7655" data-name="Path 7655" d="M314.4,154.124l-4.66-4.66a1.374,1.374,0,0,0-1.944,1.944l4.66,4.66a1.374,1.374,0,0,0,1.944-1.944Z" transform="translate(-299.21 -139.484)" fill="#e28424"/>
      </g>
    </g>
    <g id="Group_3066" data-name="Group 3066" transform="translate(4.072 -16.943)">
      <path id="Path_7656" data-name="Path 7656" d="M63.908,25.624a40.4,40.4,0,0,1-.545,4.634,2.1,2.1,0,0,1-1.26,1.55c-.588.245-1.22.651-1.22,1.261a1.291,1.291,0,0,0,.107.525H51.982a1.291,1.291,0,0,0,.107-.525c0-.611-.633-1.017-1.22-1.261a2.1,2.1,0,0,1-1.259-1.55,40.252,40.252,0,0,1-.546-4.634,2.076,2.076,0,0,1,.269-1.165,13.236,13.236,0,0,1,4.561-4.279V15.964h5.185V20.18a13.23,13.23,0,0,1,4.56,4.279A2.069,2.069,0,0,1,63.908,25.624Z" transform="translate(-49.06 -14.835)" fill="#80b4fb"/>
      <path id="Path_7657" data-name="Path 7657" d="M107.285,32.189h5.185v1.534h-5.185Z" transform="translate(-102.451 -29.713)" fill="#61a2f9"/>
      <path id="Path_7658" data-name="Path 7658" d="M55.346,29.575V32.66a10.02,10.02,0,0,0-3.1,4.28,3.271,3.271,0,0,0-.159,1.165c.035.936.124,2.85.323,4.634a2.189,2.189,0,0,0,.746,1.55,1.541,1.541,0,0,1,.722,1.261,2.056,2.056,0,0,1-.063.525H51.982a1.291,1.291,0,0,0,.107-.525c0-.611-.633-1.017-1.22-1.261a2.1,2.1,0,0,1-1.259-1.55,40.086,40.086,0,0,1-.546-4.634,2.067,2.067,0,0,1,.269-1.165,13.236,13.236,0,0,1,4.561-4.28v-2.4Z" transform="translate(-49.06 -27.316)" fill="#61a2f9"/>
      <path id="Path_7659" data-name="Path 7659" d="M106.012,2.366h-3.989A1.129,1.129,0,0,0,100.9,3.495V5.306h6.246V3.495a1.129,1.129,0,0,0-1.129-1.129Z" transform="translate(-96.592 -2.366)" fill="#db5c6e"/>
      <path id="Path_7660" data-name="Path 7660" d="M104.261,2.37A1.128,1.128,0,0,0,103.132,3.5V5.309H100.9V3.5a1.128,1.128,0,0,1,1.129-1.128Z" transform="translate(-96.592 -2.37)" fill="#d64553"/>
    </g>
    <path id="Path_7661" data-name="Path 7661" d="M67.035,274.62s-.038,1.247-.162,3.187a111.249,111.249,0,0,1-1.225,11.067,6.4,6.4,0,0,1-6.3,5.33H37.1a6.4,6.4,0,0,1-6.3-5.33,111.249,111.249,0,0,1-1.225-11.067c-.124-1.94-.162-3.187-.162-3.187Z" transform="translate(-26.973 -268.961)" fill="#ff7058"/>
    <path id="Path_7662" data-name="Path 7662" d="M67.034,274.62s-.038,1.247-.162,3.187a3.184,3.184,0,0,1-.609.071q-18.041.346-36.08,0a3.191,3.191,0,0,1-.609-.071c-.124-1.94-.162-3.187-.162-3.187Z" transform="translate(-26.972 -268.961)" fill="#d64553"/>
    <path id="Path_7663" data-name="Path 7663" d="M39.849,294.2H37.1a6.4,6.4,0,0,1-6.3-5.33,119.958,119.958,0,0,1-1.386-14.254h4.648s.17,7.449,1.043,14.254C35.5,291.949,37.5,294.2,39.849,294.2Z" transform="translate(-26.973 -268.961)" fill="#d64553"/>
    <path id="Path_7664" data-name="Path 7664" d="M159.321,104.9a68.793,68.793,0,0,0-13.026-.164c-.577.048-.792.463-1.369.525a61.177,61.177,0,0,0-.361,14.063,68.818,68.818,0,0,0,14.757,0A64.293,64.293,0,0,0,159.321,104.9Z" transform="translate(-132.319 -112.965)" fill="#ededed"/>
    <path id="Path_7665" data-name="Path 7665" d="M144.765,122.054q-.865-.071-1.73-.164a64.256,64.256,0,0,1,0-14.424q.865-.092,1.73-.164A68.07,68.07,0,0,0,144.765,122.054Z" transform="translate(-130.789 -115.532)" fill="#dbdbdb"/>
    <path id="Path_7666" data-name="Path 7666" d="M39.294,203.254q-18.04.347-36.08,0A3.2,3.2,0,0,1,.145,200.7a7.045,7.045,0,0,1,0-2.829,3.2,3.2,0,0,1,3.069-2.559q18.04-.347,36.08,0a3.2,3.2,0,0,1,3.069,2.559,7.045,7.045,0,0,1,0,2.829A3.2,3.2,0,0,1,39.294,203.254Z" transform="translate(-0.003 -196.074)" fill="#ffd064"/>
    <path id="Path_7667" data-name="Path 7667" d="M6.286,204.637q-1.537-.023-3.075-.053a3.2,3.2,0,0,1-3.069-2.559,7.034,7.034,0,0,1,0-2.829,3.194,3.194,0,0,1,3.069-2.559q1.537-.029,3.075-.053a3.314,3.314,0,0,0-2.449,2.558,7.286,7.286,0,0,0,0,2.936A3.315,3.315,0,0,0,6.286,204.637Z" transform="translate(0 -197.403)" fill="#ffc250"/>
    <g id="Group_3067" data-name="Group 3067" transform="translate(10.633 10.832)">
      <path id="Path_7668" data-name="Path 7668" d="M130.236,336.932h-.04a2.076,2.076,0,0,0-2.059,2.017q-.078,2.6,0,5.2a2.076,2.076,0,0,0,2.059,2.017h.04a2.076,2.076,0,0,0,2.059-2.017q.078-2.6,0-5.2A2.076,2.076,0,0,0,130.236,336.932Z" transform="translate(-128.098 -336.932)" fill="#365e7d"/>
      <path id="Path_7669" data-name="Path 7669" d="M232.625,336.932h-.04a2.076,2.076,0,0,0-2.059,2.017q-.078,2.6,0,5.2a2.076,2.076,0,0,0,2.059,2.017h.04a2.076,2.076,0,0,0,2.059-2.017q.078-2.6,0-5.2A2.076,2.076,0,0,0,232.625,336.932Z" transform="translate(-221.986 -336.932)" fill="#365e7d"/>
      <path id="Path_7670" data-name="Path 7670" d="M335.014,336.932h-.04a2.076,2.076,0,0,0-2.059,2.017q-.078,2.6,0,5.2a2.076,2.076,0,0,0,2.059,2.017h.04a2.076,2.076,0,0,0,2.059-2.017q.078-2.6,0-5.2A2.076,2.076,0,0,0,335.014,336.932Z" transform="translate(-315.875 -336.932)" fill="#365e7d"/>
    </g>
    <g id="Group_3070" data-name="Group 3070" transform="translate(1.218 1.506)">
      <g id="Group_3068" data-name="Group 3068" transform="translate(0 0)">
        <path id="Path_7671" data-name="Path 7671" d="M23.988,225.171a6.321,6.321,0,0,0-1.414-.515,2.106,2.106,0,0,0-2.43,1.294q-2.854,7.273-5.343,14.678a2.106,2.106,0,0,0,1.03,2.553,6.321,6.321,0,0,0,1.414.515,2.106,2.106,0,0,0,2.43-1.294q2.854-7.273,5.343-14.678A2.106,2.106,0,0,0,23.988,225.171Z" transform="translate(-14.691 -224.602)" fill="#407093"/>
        <path id="Path_7672" data-name="Path 7672" d="M16.416,243.443a6.193,6.193,0,0,1-.587-.26A2.1,2.1,0,0,1,14.8,240.63q2.489-7.405,5.343-14.679a2.106,2.106,0,0,1,2.429-1.294,6.154,6.154,0,0,1,.615.178,2.214,2.214,0,0,0-1.489,1.332q-2.973,7.58-5.567,15.3A2.213,2.213,0,0,0,16.416,243.443Z" transform="translate(-14.688 -224.603)" fill="#365e7d"/>
      </g>
      <g id="Group_3069" data-name="Group 3069" transform="translate(29.628)">
        <path id="Path_7673" data-name="Path 7673" d="M374.131,224.652a6.317,6.317,0,0,0-1.414.515,2.106,2.106,0,0,0-1.03,2.553q2.489,7.406,5.342,14.678a2.106,2.106,0,0,0,2.43,1.294,6.317,6.317,0,0,0,1.414-.515,2.106,2.106,0,0,0,1.03-2.553q-2.489-7.406-5.343-14.678A2.106,2.106,0,0,0,374.131,224.652Z" transform="translate(-371.576 -224.598)" fill="#407093"/>
        <path id="Path_7674" data-name="Path 7674" d="M380.076,246.945a6.194,6.194,0,0,1-.617.178,2.105,2.105,0,0,1-2.429-1.294q-2.853-7.273-5.343-14.679a2.106,2.106,0,0,1,1.029-2.553,6.172,6.172,0,0,1,.586-.259,2.215,2.215,0,0,0-.284,1.977q2.595,7.718,5.567,15.3A2.213,2.213,0,0,0,380.076,246.945Z" transform="translate(-371.575 -228.028)" fill="#365e7d"/>
      </g>
    </g>
    <path id="Path_7675" data-name="Path 7675" d="M101.491,31.52h-6a.623.623,0,0,1,0-1.245h6a.623.623,0,1,1,0,1.245Z" transform="translate(-86.992 -44.901)" fill="#db5c6e"/>
    <path id="Path_7676" data-name="Path 7676" d="M97.359,31.52H95.49a.623.623,0,0,1,0-1.245h1.87a.623.623,0,1,0,0,1.245Z" transform="translate(-86.992 -44.901)" fill="#d64553"/>
  </g>
</svg>
