<svg id="_001-interface" data-name="001-interface" xmlns="http://www.w3.org/2000/svg" xmlns:xlink="http://www.w3.org/1999/xlink" width="212.885" height="212.9" viewBox="0 0 212.885 212.9">
  <defs>
    <linearGradient id="linear-gradient" x2="1.53" y2="1.374" gradientUnits="objectBoundingBox">
      <stop offset="0" stop-color="#27a4d8"/>
      <stop offset="1" stop-color="#b2d34e"/>
    </linearGradient>
    <linearGradient id="linear-gradient-2" x1="0.346" y1="0.434" x2="0.808" y2="1.557" xlink:href="#linear-gradient"/>
  </defs>
  <path id="Path_89" data-name="Path 89" d="M105.316,113.11a5.949,5.949,0,0,1,7.468-7.5l47.438,15.778H205.1a5.9,5.9,0,0,0,5.925-5.855V27.77a5.881,5.881,0,0,0-5.925-5.855H27.725A5.9,5.9,0,0,0,21.8,27.77v87.794a5.881,5.881,0,0,0,5.925,5.855h80.326Z" transform="translate(-9.984 -10.029)" fill="#fff"/>
  <path id="Path_90" data-name="Path 90" d="M203.392,203.83l5.5,16.444h22.474a5.925,5.925,0,1,1,0,11.85H212.859l2.595,7.889h10.028a5.925,5.925,0,1,1,0,11.85h-6.066L230.074,283.7l9.046-21c2.314-5.084,8.309-4.1,9.607-1.858l26.822,26.787,11.781-11.781-26.822-26.752a5.9,5.9,0,0,1,1.858-9.642l21.037-9.011Z" transform="translate(-93.089 -93.281)" fill="url(#linear-gradient)"/>
  <path id="Path_117" data-name="Path 117" d="M4,0H193.525a4,4,0,0,1,4,4v97.908a4,4,0,0,1-4,4l-68.791.26-24.8-7.8-2,6.9L4,105.908a4,4,0,0,1-4-4V4A4,4,0,0,1,4,0Z" transform="translate(9.666 7.632)" fill="url(#linear-gradient-2)"/>
  <g id="Group_64" data-name="Group 64" transform="translate(0)">
    <path id="Path_91" data-name="Path 91" d="M67.9,98.3a19.72,19.72,0,0,1-5.189-1.753,2.178,2.178,0,0,1-1.122-1.963c0-.841.421-2.735,3.436-2.77a12.465,12.465,0,0,1,7.713,2.805l3.225-4.663a17.34,17.34,0,0,0-10.729-3.787c-2.945,0-10.238,1.157-10.238,8.52,0,2.735.771,4.7,2.314,6a18.3,18.3,0,0,0,7.293,3.085,13.965,13.965,0,0,1,4.242,1.542,2.352,2.352,0,0,1,1.052,2.069c0,.912-.35,2.629-3.787,2.805-2.595.14-5.5-1.333-8.555-4.067l-3.821,4.7c3.646,3.366,7.713,5.189,12.237,5.014,9.186-.35,10.483-6.066,10.483-8.625a7.427,7.427,0,0,0-2.279-5.855A14.011,14.011,0,0,0,67.9,98.3Z" transform="translate(-24.598 -39.437)" fill="#fff"/>
    <rect id="Rectangle_151" data-name="Rectangle 151" width="6.276" height="28.154" transform="translate(57.08 47.683)" fill="#fff"/>
    <path id="Path_92" data-name="Path 92" d="M146.735,108.949H146.7a10.741,10.741,0,0,1-5.434,1.262c-6.311,0-7.994-6.136-7.994-8.8,0-2.629,1.893-8.836,8.52-8.836a18.661,18.661,0,0,1,6.942,2.875l3.261-4.7a15.461,15.461,0,0,0-10.554-4c-5.189,0-14.656,3.506-14.656,14.621a14.225,14.225,0,0,0,14.656,14.516c4.944-.21,8.836-1.542,11.641-4.663v-9.958H146.77v7.679h-.035Z" transform="translate(-58.03 -39.703)" fill="#fff"/>
    <path id="Path_93" data-name="Path 93" d="M205.289,106.046,191.44,87.919h-5.891v28.154h6.276V98.437l13.463,17.636h6.276V87.919h-6.276Z" transform="translate(-84.923 -40.236)" fill="#fff"/>
    <rect id="Rectangle_152" data-name="Rectangle 152" width="6.276" height="28.154" transform="translate(144.278 47.683)" fill="#fff"/>
    <path id="Path_94" data-name="Path 94" d="M296.746,98.437l13.463,17.636h6.276V87.919H310.21v18.127L296.325,87.919H290.47v28.154h6.276Z" transform="translate(-132.939 -40.236)" fill="#fff"/>
    <path id="Path_95" data-name="Path 95" d="M208.84,130.85l-23-7.643h9.291a17.747,17.747,0,0,0,17.741-17.671V17.741A17.761,17.761,0,0,0,195.131,0H17.755A17.762,17.762,0,0,0,.014,17.741v87.794a17.747,17.747,0,0,0,17.741,17.671h84.288l28.61,85.62a5.872,5.872,0,0,0,11.009.456l11.746-27.243,24.858,24.753a5.883,5.883,0,0,0,8.345,0l20.16-20.125a5.761,5.761,0,0,0,0-8.38l-24.824-24.753,27.278-11.675C213.924,140.526,214.45,132.462,208.84,130.85Zm-113.494-27.7,2.77,8.309H17.755A6.064,6.064,0,0,1,11.83,105.5V17.741a5.881,5.881,0,0,1,5.925-5.855H195.166a5.9,5.9,0,0,1,5.925,5.855v87.794a5.881,5.881,0,0,1-5.925,5.855H150.287L102.849,95.648A5.939,5.939,0,0,0,95.346,103.151Zm73.944,42.985a5.9,5.9,0,0,0-1.858,9.642l26.822,26.752L182.474,194.31l-26.822-26.787c-1.3-2.209-7.293-3.225-9.607,1.858l-9.046,21L126.34,158.547h6.066a5.925,5.925,0,1,0,0-11.85H122.343l-2.629-7.889h18.478a5.925,5.925,0,1,0,0-11.85H115.717l-5.5-16.444,80.01,26.612Z" transform="translate(-0.014)" fill="#1a252c"/>
  </g>
</svg>
