<svg id="_003-startup" data-name="003-startup" xmlns="http://www.w3.org/2000/svg" xmlns:xlink="http://www.w3.org/1999/xlink" width="212.893" height="212.893" viewBox="0 0 212.893 212.893">
  <defs>
    <linearGradient id="linear-gradient" x1="0.5" x2="0.5" y2="1.615" gradientUnits="objectBoundingBox">
      <stop offset="0" stop-color="#27a4d8"/>
      <stop offset="1" stop-color="#b2d34e"/>
    </linearGradient>
    <linearGradient id="linear-gradient-2" x2="0.5" y2="1.477" xlink:href="#linear-gradient"/>
  </defs>
  <path id="Path_106" data-name="Path 106" d="M191.267,95.731a5.918,5.918,0,0,0,5.925-5.925v-5.4a5.925,5.925,0,1,0-11.85,0v5.4A5.918,5.918,0,0,0,191.267,95.731Z" transform="translate(-84.821 -35.916)"/>
  <path id="Path_107" data-name="Path 107" d="M80.093,68.625h0a5.918,5.918,0,0,1-5.925,5.925H27.711a5.918,5.918,0,0,0-5.925,5.925V200.631a5.918,5.918,0,0,0,5.925,5.925H205.122a5.918,5.918,0,0,0,5.925-5.925V80.44a5.918,5.918,0,0,0-5.925-5.925h-48.56a5.918,5.918,0,0,1-5.925-5.925H80.093Z" transform="translate(-9.97 -31.39)" fill="#fff"/>
  <path id="Path_108" data-name="Path 108" d="M209.167,101.271v108.34H43.572v-7.994h5.084a5.908,5.908,0,0,0,0-11.816H43.572V179.353h17.11a5.925,5.925,0,1,0,0-11.85H43.572V101.236h54.8v18.442L77.721,131.634a5.878,5.878,0,0,0-2.98,5.119v41.478a5.943,5.943,0,0,0,8.905,5.119l22.264-12.833h1.052L121.2,196.883a5.864,5.864,0,0,0,5.189,3.085,5.934,5.934,0,0,0,5.189-3.085l14.235-26.366h1.052l22.264,12.833a5.961,5.961,0,0,0,5.925,0,5.878,5.878,0,0,0,2.98-5.119V136.789a5.836,5.836,0,0,0-2.98-5.119L154.4,119.714V101.272Z" transform="translate(-19.94 -46.33)" fill="url(#linear-gradient)"/>
  <path id="Path_109" data-name="Path 109" d="M166.529,61.949v65.635h32.257V61.949L182.658,33.164Z" transform="translate(-76.211 -15.177)" fill="url(#linear-gradient-2)"/>
  <g id="Group_66" data-name="Group 66" transform="translate(66.687 87.057)">
    <path id="Path_110" data-name="Path 110" d="M247.855,188.321l11.781,6.837V167.284l-11.781-6.767Z" transform="translate(-180.116 -160.517)" fill="#fff"/>
    <path id="Path_111" data-name="Path 111" d="M134.739,160.517l-11.781,6.767v27.874l11.781-6.837Z" transform="translate(-122.958 -160.517)" fill="#fff"/>
    <path id="Path_112" data-name="Path 112" d="M191.178,240.157l6.03-11.115H185.147Z" transform="translate(-151.418 -191.877)" fill="#fff"/>
  </g>
  <path id="Path_113" data-name="Path 113" d="M130.337,344.63,120.7,358.76h81.973l-9.641-14.13Z" transform="translate(-55.235 -157.718)" fill="#fff"/>
  <g id="Group_67" data-name="Group 67">
    <path id="Path_114" data-name="Path 114" d="M201.354,85.34,180.7,73.384V45.229a5.531,5.531,0,0,0-.771-2.875L157.842,3.016a5.912,5.912,0,0,0-10.308,0L125.446,42.354a5.985,5.985,0,0,0-.771,2.875V73.384L104.023,85.339a5.878,5.878,0,0,0-2.98,5.119v41.478a5.877,5.877,0,0,0,2.98,5.119,5.767,5.767,0,0,0,5.925,0l22.264-12.833h1.052L147.5,150.588a5.906,5.906,0,0,0,10.379,0l14.235-26.366h1.052l22.264,12.833a5.943,5.943,0,0,0,8.905-5.119V90.458A5.9,5.9,0,0,0,201.354,85.34ZM192.448,121.7l-11.816-6.837V87.023l11.816,6.837Zm-23.632-9.291H136.49V46.772l16.163-28.786,16.128,28.82v65.6h.035ZM112.929,93.824l11.816-6.837v27.839l-11.816,6.837V93.824Zm39.76,41.513-6.03-11.115h12.026Z" transform="translate(-46.242)" fill="#1a252c"/>
    <path id="Path_115" data-name="Path 115" d="M195.152,57.665h-48.56a5.943,5.943,0,0,0,0,11.886h48.56a5.918,5.918,0,0,1,5.925,5.925V195.631a5.918,5.918,0,0,1-5.925,5.925H17.741a5.918,5.918,0,0,1-5.925-5.925V75.441a5.918,5.918,0,0,1,5.925-5.925H64.232a5.925,5.925,0,0,0,0-11.85H17.741A17.717,17.717,0,0,0,0,75.406V195.561A17.762,17.762,0,0,0,17.741,213.3H60.8L49.4,229.992a5.934,5.934,0,0,0,4.874,9.291H158.723a5.918,5.918,0,0,0,5.925-5.925,6,6,0,0,0-1.508-3.927l-10.974-16.093h42.986A17.762,17.762,0,0,0,212.893,195.6V75.441A17.769,17.769,0,0,0,195.152,57.665ZM65.46,227.432,75.1,213.338h62.655l9.642,14.095Z" transform="translate(0 -26.39)" fill="#1a252c"/>
    <path id="Path_116" data-name="Path 116" d="M191.267,95.731a5.918,5.918,0,0,1-5.925-5.925v-5.4a5.925,5.925,0,1,1,11.85,0v5.4A5.918,5.918,0,0,1,191.267,95.731Z" transform="translate(-84.821 -35.916)" fill="#1a252c"/>
  </g>
</svg>
