<svg xmlns="http://www.w3.org/2000/svg" width="23.817" height="23.817" viewBox="0 0 23.817 23.817">
  <g id="Stc-Pay" transform="translate(0 0)">
    <path id="Path_7745" data-name="Path 7745" d="M-41.072-138.915h12.91a.07.07,0,0,1-.033.092.854.854,0,0,1-.409.053q-6.014,0-12.027,0a.86.86,0,0,1-.409-.053A.07.07,0,0,1-41.072-138.915Z" transform="translate(46.525 138.915)" fill="#9e9e9e"/>
    <path id="Path_7746" data-name="Path 7746" d="M-27.273,286.427h-12.8a.07.07,0,0,1,.033-.092.855.855,0,0,1,.409-.053q5.958,0,11.916,0a.861.861,0,0,1,.409.053A.07.07,0,0,1-27.273,286.427Z" transform="translate(45.581 -262.61)" fill="#aeaeae"/>
    <path id="Path_7747" data-name="Path 7747" d="M-138.921,11.307V.79l.046-.014a.16.16,0,0,1,.061.075.64.64,0,0,1,.03.152c.017,2.306,0,4.612.008,6.918q0,1.459,0,2.917a.926.926,0,0,1-.052.437.07.07,0,0,1-.092.032Z" transform="translate(138.921 7)" fill="#a7a7a7"/>
    <path id="Path_7748" data-name="Path 7748" d="M286.417.81V11.328a.067.067,0,0,1-.092-.032.593.593,0,0,1-.052-.3c0-3.317-.01-6.633,0-9.95A.879.879,0,0,1,286.3.9a.237.237,0,0,1,.039-.084.058.058,0,0,1,.081-.008Z" transform="translate(-262.6 6.98)" fill="#a7a7a7"/>
    <path id="Path_7749" data-name="Path 7749" d="M-138.869-37.8l-.052,0v-2.281a.066.066,0,0,1,.052,0,.066.066,0,0,1,.039.035.65.65,0,0,1,.052.322c0,.523,0,1.046,0,1.569A.448.448,0,0,1-138.869-37.8Z" transform="translate(138.921 45.595)" fill="#959595"/>
    <path id="Path_7750" data-name="Path 7750" d="M286.441-37.806l-.052,0a.309.309,0,0,1-.088-.252q-.012-.894,0-1.789a.433.433,0,0,1,.049-.213.066.066,0,0,1,.039-.035.066.066,0,0,1,.052,0Z" transform="translate(-262.623 45.597)" fill="#959595"/>
    <path id="Path_7751" data-name="Path 7751" d="M-138.921,189.954a.106.106,0,0,0,.047.006.785.785,0,0,1,.051.833c-.113-.132.02-.318-.1-.449Z" transform="translate(138.921 -171.646)" fill="#d8d8d8"/>
    <path id="Path_7752" data-name="Path 7752" d="M190.922-138.864a.093.093,0,0,1,0-.051h.334l0,.062A.234.234,0,0,1,190.922-138.864Z" transform="translate(-172.555 138.915)" fill="#e1e1e1"/>
    <path id="Path_7753" data-name="Path 7753" d="M-138.874-45.645h-.024l-.023.006v-.334a.308.308,0,0,1,.055,0A.223.223,0,0,1-138.874-45.645Z" transform="translate(138.921 51.148)" fill="#cfcfcf"/>
    <path id="Path_7754" data-name="Path 7754" d="M286.824-45.7l-.023-.006h-.024a.22.22,0,0,1,0-.331.087.087,0,0,1,.05,0Z" transform="translate(-263.007 51.212)" fill="#cecece"/>
    <path id="Path_7755" data-name="Path 7755" d="M286.778,189.959a.117.117,0,0,0,.047-.005v.334l-.025,0-.025,0A.221.221,0,0,1,286.778,189.959Z" transform="translate(-263.008 -171.646)" fill="#d6d6d6"/>
    <path id="Path_7756" data-name="Path 7756" d="M-45.65,286.782l.006.047h-.334c0-.017,0-.034,0-.051A.22.22,0,0,1-45.65,286.782Z" transform="translate(51.154 -263.011)" fill="#e4e4e4"/>
    <path id="Path_7757" data-name="Path 7757" d="M189.953,286.828l.006-.047a.22.22,0,0,1,.329,0q0,.026,0,.051Z" transform="translate(-171.645 -263.011)" fill="#e4e4e4"/>
    <path id="Path_7758" data-name="Path 7758" d="M-45.686-138.915a.092.092,0,0,1,0,.051.185.185,0,0,1-.136.064.185.185,0,0,1-.138-.059c0-.018,0-.037,0-.055Z" transform="translate(51.14 138.915)" fill="#e1e1e1"/>
    <path id="Path_7759" data-name="Path 7759" d="M-132.957-138l.275,0,12.307,0c.2,0,.407,0,.611,0l.328.011a5.492,5.492,0,0,1,2.995,1.028,5.13,5.13,0,0,1,2.052,3.921c0,.055.016.109.024.163l0,.331q0,1.144-.005,2.289l-.008-.006c-.134.12-.3.08-.452.08q-5.517,0-11.035,0l-11.757,0c-.153,0-.318.039-.452-.08l-.008.006-.006-2.289q0-.164.008-.328c.072-.422.106-.848.205-1.268a5.061,5.061,0,0,1,3.916-3.7C-133.624-137.905-133.29-137.95-132.957-138Z" transform="translate(138.132 138.057)"/>
    <path id="Path_7760" data-name="Path 7760" d="M-119.48,17.906l-.329,0c-.12,0-.241-.009-.361-.009h-12.089c-.12,0-.241.006-.361.009l-.329,0a6.135,6.135,0,0,1-2.44-.653,5.012,5.012,0,0,1-2.6-3.776c-.01-.064-.023-.127-.034-.191a6.5,6.5,0,0,0-.051-.833c0-.861.007-1.721.008-2.582q0-3.915.007-7.829a.451.451,0,0,1,.321-.055q11.525,0,23.05,0a.451.451,0,0,1,.321.055q0,3.887.007,7.774c0,.879.006,1.758.008,2.637l0,.331A5.908,5.908,0,0,1-115,15.2a4.992,4.992,0,0,1-3.852,2.623C-119.059,17.855-119.27,17.879-119.48,17.906Z" transform="translate(138.123 5.859)" fill="#444343"/>
    <path id="Path_7761" data-name="Path 7761" d="M-114.142,1.084h-23.692q0-.058,0-.115l3.977,0H-114.5c.12,0,.241,0,.361,0Q-114.141,1.026-114.142,1.084Z" transform="translate(137.896 6.818)" fill="#6d6d6d"/>
    <path id="Path_7762" data-name="Path 7762" d="M93.852-90.1a1.76,1.76,0,0,1,2.376-1.734,1.5,1.5,0,0,1,.908.844c.06.135.057.224-.109.26a1.193,1.193,0,0,0-.264.086c-.233.114-.388.12-.543-.159a.677.677,0,0,0-.815-.255.942.942,0,0,0-.6,1.228.846.846,0,0,0,.391.535.846.846,0,0,0,.657.089.662.662,0,0,0,.473-.356c.08-.177.176-.179.324-.111a2.581,2.581,0,0,0,.263.088c.344.115.347.125.164.451a1.666,1.666,0,0,1-1.849.753,1.741,1.741,0,0,1-1.369-1.559C93.854-90,93.853-90.064,93.852-90.1Z" transform="translate(-80.894 94.554)" fill="#fefefe"/>
    <path id="Path_7763" data-name="Path 7763" d="M-3.2-91.874a1.385,1.385,0,0,1,1.245.672c.142.252.11.308-.164.371-.081.019-.164.033-.243.057-.154.047-.255.046-.345-.139a.669.669,0,0,0-.889-.163.28.28,0,0,0-.129.261.28.28,0,0,0,.229.249c.205.055.416.092.624.134a1.646,1.646,0,0,1,.568.214,1,1,0,0,1,.482.814,1,1,0,0,1-.417.849,1.759,1.759,0,0,1-2.07-.105,1.3,1.3,0,0,1-.228-.278c-.188-.313-.161-.371.189-.448a1.62,1.62,0,0,0,.243-.056c.151-.059.215-.019.285.136a.733.733,0,0,0,.973.248.291.291,0,0,0,.143-.281.264.264,0,0,0-.2-.244c-.2-.064-.411-.11-.616-.168a3.266,3.266,0,0,1-.448-.143.9.9,0,0,1-.6-.769,1,1,0,0,1,.475-.97A1.609,1.609,0,0,1-3.2-91.874Z" transform="translate(12.127 94.493)" fill="#fefefe"/>
    <path id="Path_7764" data-name="Path 7764" d="M56.9-74.119a6.723,6.723,0,0,1,.029,1.131c.009.646.194.782.824.589a.56.56,0,0,1,.094-.01v.282c0,.487-.047.541-.526.612a1.036,1.036,0,0,1-1.3-1.113c0-.425.007-.851,0-1.276,0-.174.054-.225.221-.215.221.013.444,0,.665.006Z" transform="translate(-45.165 77.728)" fill="#fefefe"/>
    <path id="Path_7765" data-name="Path 7765" d="M56.932-106.167c-.24,0-.481-.008-.721,0-.119,0-.173-.04-.16-.161a.7.7,0,0,0,0-.083c-.01-.749-.01-.748.736-.694.087.006.177,0,.171.122a3.806,3.806,0,0,1-.032.825Z" transform="translate(-45.195 108.898)" fill="#fcfcfc"/>
    <path id="Path_7766" data-name="Path 7766" d="M71.818-90c.257,0,.514,0,.77-.014s.207.169.171.275c-.07.2.219.528-.169.6a3.987,3.987,0,0,1-.77.006l0,0a3,3,0,0,0,0-.882Z" transform="translate(-60.086 92.734)" fill="#fbfbfb"/>
    <path id="Path_7767" data-name="Path 7767" d="M-54.882,89.6a2.072,2.072,0,0,1,2.721-.1,2.668,2.668,0,0,1-.112,3.93,1.982,1.982,0,0,1-2.506-.125c-.026-.023-.046-.062-.117-.03,0,.622-.008,1.257,0,1.892,0,.214-.048.3-.274.28a4.4,4.4,0,0,0-.611,0c-.142.006-.194-.04-.193-.188q.006-2.959,0-5.919c0-.153.059-.191.2-.185a3.91,3.91,0,0,0,.555,0c.244-.024.371.044.323.311A.681.681,0,0,0-54.882,89.6Z" transform="translate(60.587 -76.343)" fill="#fefefe"/>
    <path id="Path_7768" data-name="Path 7768" d="M44.233,95.065a1.961,1.961,0,0,1-1.93.607,1.367,1.367,0,0,1-1.161-1.388,1.3,1.3,0,0,1,1.15-1.352c.538-.093,1.083-.142,1.625-.216.151-.021.352.025.328-.252s-.119-.413-.374-.422c-.333-.012-.667,0-1-.005-.352,0-.7-.01-1.057,0-.2.008-.276-.038-.275-.257,0-.724-.006-.724.721-.724.575,0,1.15-.009,1.724,0a1.2,1.2,0,0,1,1.293.88,1.644,1.644,0,0,1,.04.385c0,1,0,2,.006,3,0,.189-.043.276-.245.252a3.114,3.114,0,0,0-.361,0C44.252,95.581,44.252,95.581,44.233,95.065Z" transform="translate(-31.118 -78.255)" fill="#fefefe"/>
    <path id="Path_7769" data-name="Path 7769" d="M132.336,93.907c.289-.922.586-1.835.855-2.757.078-.266.185-.393.474-.349a2.028,2.028,0,0,0,.5,0c.232-.023.229.061.163.248-.587,1.658-1.164,3.32-1.746,4.98a1.371,1.371,0,0,1-.85.993,4.818,4.818,0,0,1-1.271.067c-.082,0-.115-.043-.113-.121a.2.2,0,0,0,0-.028c-.089-.8-.084-.8.7-.813a.745.745,0,0,0,.68-.989c-.495-1.357-.989-2.714-1.5-4.067-.088-.236-.033-.289.2-.272.266.019.584-.07.788.047s.2.474.289.726c.236.692.456,1.39.688,2.084C132.226,93.741,132.218,93.847,132.336,93.907Z" transform="translate(-115.213 -78.001)" fill="#fefefe"/>
    <path id="Path_7770" data-name="Path 7770" d="M-36.686,108.389c0-.887.445-1.383,1.238-1.378a1.214,1.214,0,0,1,1.186,1.383,1.23,1.23,0,0,1-1.189,1.388C-36.221,109.785-36.686,109.261-36.686,108.389Z" transform="translate(42.377 -93.321)" fill="#444343"/>
    <path id="Path_7771" data-name="Path 7771" d="M62.991,136.1a.671.671,0,0,1-.249.646,1.406,1.406,0,0,1-1.256.363.519.519,0,0,1-.477-.5.509.509,0,0,1,.424-.567c.47-.094.947-.158,1.423-.212C63.116,135.8,62.944,136.035,62.991,136.1Z" transform="translate(-49.877 -120.535)" fill="#444343"/>
  </g>
</svg>
